<?xml version="1.0" encoding="UTF-8"?>
<svg version="1.1" xmlns="http://www.w3.org/2000/svg" width="225" height="224">
<path d="M0 0 C2.94099592 2.01130093 4.90542874 3.81517436 6.890625 6.79296875 C7.11408489 12.93019682 5.14875401 18.88173287 3.203125 24.625 C2.94055908 25.42403244 2.67799316 26.22306488 2.4074707 27.04631042 C1.57677199 29.56884802 0.73415558 32.0871966 -0.109375 34.60546875 C-0.95028225 37.14239827 -1.78872108 39.68012912 -2.6262207 42.21818542 C-3.14564982 43.78943261 -3.66751381 45.35987756 -4.19213867 46.92939758 C-5.28068369 50.19769293 -6.30435114 53.44395273 -7.109375 56.79296875 C-6.78251709 56.00760742 -6.45565918 55.22224609 -6.11889648 54.41308594 C-4.8749315 51.43561955 -3.62335942 48.46148931 -2.36694336 45.48925781 C-1.8298068 44.21445799 -1.29551677 42.93845416 -0.7644043 41.66113281 C8.93472657 18.35385523 8.93472657 18.35385523 16.890625 12.79296875 C22.55283952 10.90556391 26.69626332 11.45159188 32.015625 13.98046875 C35.98357727 16.1175202 38.94089806 18.33757434 41.890625 21.79296875 C42.756875 22.74171875 43.623125 23.69046875 44.515625 24.66796875 C47.71083639 28.87219426 49.59323646 32.66876492 50.328125 37.91796875 C49.68225383 42.16226498 47.47769973 44.51004039 44.16186523 47.19042969 C42.09708887 48.70266027 40.00366125 50.16146342 37.890625 51.60546875 C37.14111572 52.12592773 36.39160645 52.64638672 35.61938477 53.18261719 C29.43029921 57.4658951 23.18661284 61.66842951 16.890625 65.79296875 C17.48746094 65.46425781 18.08429688 65.13554688 18.69921875 64.796875 C21.14204056 63.45749721 23.59114687 62.13013585 26.04101562 60.80371094 C28.07672514 59.691272 30.10032991 58.55817759 32.125 57.42578125 C33.60909659 56.61017028 35.09347111 55.79506482 36.578125 54.98046875 C37.27800537 54.58351807 37.97788574 54.18656738 38.69897461 53.77758789 C44.66073356 50.53864332 49.82301204 48.90908027 56.578125 50.85546875 C63.19911804 54.72812506 65.78627202 59.6846885 68.1640625 66.7890625 C70.10843809 74.82790566 69.64411383 82.42004427 65.890625 89.79296875 C62.55755535 93.11495387 59.7557301 93.20382171 55.15625 93.3046875 C53.86074219 93.34013672 52.56523437 93.37558594 51.23046875 93.41210938 C49.86719274 93.43520742 48.50391136 93.45798989 47.140625 93.48046875 C45.76168638 93.51365523 44.3827785 93.54814613 43.00390625 93.58398438 C39.63289441 93.66649166 36.26214372 93.73563646 32.890625 93.79296875 C34.01339844 93.90253906 35.13617188 94.01210937 36.29296875 94.125 C55.47807011 96.10648937 55.47807011 96.10648937 61.828125 101.10546875 C65.77462693 106.24788035 66.3706649 110.71719606 65.5546875 117.0078125 C63.54168574 125.45057872 59.00687876 133.65865408 51.890625 138.79296875 C48.453125 140.48046875 48.453125 140.48046875 44.890625 140.79296875 C38.70823403 138.64603721 33.50680256 134.50326916 28.390625 130.54296875 C27.66359375 129.98867187 26.9365625 129.434375 26.1875 128.86328125 C24.41728353 127.51232657 22.65188114 126.15557084 20.890625 124.79296875 C23.45987116 127.40120852 25.97825708 129.86382022 28.828125 132.16796875 C33.58265972 136.06028215 38.39111472 140.4939049 39.12890625 146.84375 C39.31177193 152.41634113 38.67688239 155.43877275 34.890625 159.79296875 C27.73052878 167.01642866 20.60846337 171.31312315 10.390625 172.04296875 C6.44487982 171.76112981 4.87349294 171.37274643 1.890625 168.79296875 C-1.56180752 162.53408901 -3.97608781 156.01913482 -6.359375 149.29296875 C-6.72289062 148.27976563 -7.08640625 147.2665625 -7.4609375 146.22265625 C-8.34820502 143.74764685 -9.23090082 141.27110988 -10.109375 138.79296875 C-9.95791016 139.34122314 -9.80644531 139.88947754 -9.65039062 140.4543457 C-2.97887659 164.91057657 -2.97887659 164.91057657 -6.609375 173.23046875 C-11.58420056 178.32966495 -17.64585067 180.54991441 -24.671875 181.04296875 C-32.43853627 180.92683176 -40.09557025 178.75435767 -46.109375 173.79296875 C-48.02087292 171.67523078 -49.0532564 170.47540725 -49.28974915 167.59950256 C-48.46220203 161.14382138 -46.9832327 155.07411381 -45.08984375 148.8515625 C-44.79000076 147.84384293 -44.49015778 146.83612335 -44.18122864 145.79786682 C-43.54925742 143.68140014 -42.9128538 141.56625233 -42.2722168 139.45239258 C-41.2995094 136.23917119 -40.34306204 133.02143792 -39.38867188 129.80273438 C-38.76918834 127.73538942 -38.14877651 125.66832236 -37.52734375 123.6015625 C-37.24489304 122.65131699 -36.96244232 121.70107147 -36.6714325 120.72203064 C-32.12625475 105.8098485 -32.12625475 105.8098485 -28.109375 101.79296875 C-25.671875 101.48046875 -25.671875 101.48046875 -23.109375 101.79296875 C-21.296875 103.29296875 -21.296875 103.29296875 -20.109375 104.79296875 C-19.8309375 103.83390625 -19.8309375 103.83390625 -19.546875 102.85546875 C-18.109375 100.79296875 -18.109375 100.79296875 -14.484375 100.04296875 C-13.370625 99.96046875 -12.256875 99.87796875 -11.109375 99.79296875 C-11.191875 99.05046875 -11.274375 98.30796875 -11.359375 97.54296875 C-11.03832316 94.01139848 -9.75671883 93.02666511 -7.109375 90.79296875 C-7.769375 89.80296875 -8.429375 88.81296875 -9.109375 87.79296875 C-8.56883446 83.25242821 -8.56883446 83.25242821 -7.109375 81.79296875 C-7.893125 81.58671875 -8.676875 81.38046875 -9.484375 81.16796875 C-12.109375 79.79296875 -12.109375 79.79296875 -13.421875 76.66796875 C-13.64875 75.71921875 -13.875625 74.77046875 -14.109375 73.79296875 C-15.099375 74.28796875 -15.099375 74.28796875 -16.109375 74.79296875 C-18.546875 75.04296875 -18.546875 75.04296875 -21.109375 74.79296875 C-22.921875 73.29296875 -22.921875 73.29296875 -24.109375 71.79296875 C-24.46 72.45296875 -24.810625 73.11296875 -25.171875 73.79296875 C-27.109375 75.79296875 -27.109375 75.79296875 -30.796875 76.04296875 C-31.89 75.96046875 -32.983125 75.87796875 -34.109375 75.79296875 C-34.026875 76.70046875 -33.944375 77.60796875 -33.859375 78.54296875 C-34.109375 81.79296875 -34.109375 81.79296875 -36.109375 84.16796875 C-36.769375 84.70421875 -37.429375 85.24046875 -38.109375 85.79296875 C-37.449375 86.45296875 -36.789375 87.11296875 -36.109375 87.79296875 C-36.20979928 91.45287571 -36.53941778 93.21836885 -39.14746094 95.84765625 C-40.03723633 96.44835937 -40.92701172 97.0490625 -41.84375 97.66796875 C-42.84212891 98.34601563 -43.84050781 99.0240625 -44.86914062 99.72265625 C-50.30201336 103.19393118 -55.7931422 106.53991404 -61.359375 109.79296875 C-61.94965485 110.13925323 -62.53993469 110.48553772 -63.14810181 110.84231567 C-67.12584753 113.17548963 -71.11481023 115.48867429 -75.109375 117.79296875 C-76.38337158 118.53135986 -76.38337158 118.53135986 -77.68310547 119.28466797 C-79.7115134 120.45154542 -81.74940885 121.59745774 -83.796875 122.73046875 C-85.38048828 123.61025391 -85.38048828 123.61025391 -86.99609375 124.5078125 C-91.40587613 126.32816181 -95.69836231 127.33674607 -100.46484375 126.26171875 C-106.43126388 123.10676738 -109.69683108 119.55785395 -112.078125 113.2109375 C-114.58497283 104.91280694 -115.24104565 97.79189599 -112.15625 89.6171875 C-110.74269705 87.15401874 -109.30850884 85.61043664 -107.109375 83.79296875 C-104.17675781 83.24707031 -104.17675781 83.24707031 -100.8125 83.18359375 C-99.60722656 83.15136719 -98.40195313 83.11914062 -97.16015625 83.0859375 C-95.27876953 83.06466797 -95.27876953 83.06466797 -93.359375 83.04296875 C-92.08964844 83.01332031 -90.81992188 82.98367187 -89.51171875 82.953125 C-86.37754015 82.88242924 -83.24410544 82.82972863 -80.109375 82.79296875 C-81.01647217 82.68807129 -81.01647217 82.68807129 -81.94189453 82.58105469 C-84.7083184 82.25160501 -87.47106083 81.89752097 -90.234375 81.54296875 C-91.18570313 81.43339844 -92.13703125 81.32382813 -93.1171875 81.2109375 C-99.76954713 80.3331956 -104.22703322 78.89798071 -108.9296875 73.83203125 C-111.50816889 69.37518594 -111.51292512 64.18544448 -110.671875 59.19921875 C-108.29407196 50.44458028 -103.96581271 44.25284955 -97.46484375 38.04296875 C-93.95044452 36.1779476 -90.92346093 35.95218661 -87.109375 36.79296875 C-83.66615132 38.51513829 -80.67872373 40.73104639 -77.609375 43.04296875 C-76.74731445 43.66961426 -75.88525391 44.29625977 -74.99707031 44.94189453 C-72.35255313 46.87247967 -69.72945632 48.82938859 -67.109375 50.79296875 C-65.4898813 51.9938915 -63.87010286 53.19443041 -62.25 54.39453125 C-58.51794763 57.17010359 -54.80774853 59.97270067 -51.109375 62.79296875 C-54.95627352 58.82905431 -59.02580379 55.24132455 -63.234375 51.66796875 C-81.33048241 36.12964653 -81.33048241 36.12964653 -83.109375 30.79296875 C-83.47800387 25.17137844 -83.39449531 21.57132557 -80.109375 16.79296875 C-72.76891696 8.981384 -65.13255952 4.41743345 -54.3359375 3.765625 C-51.36764192 3.80207775 -49.58767206 4.11647368 -47.109375 5.79296875 C-43.68400878 10.31778226 -41.86558607 14.71471435 -40.1640625 20.04296875 C-39.9081131 20.81930664 -39.6521637 21.59564453 -39.38845825 22.39550781 C-38.57853196 24.85861966 -37.78124795 27.32560683 -36.984375 29.79296875 C-36.44224547 31.44949364 -35.89928425 33.10574658 -35.35546875 34.76171875 C-34.35665622 37.80694329 -33.36266687 40.85364485 -32.37451172 43.90234375 C-31.30337242 47.20504847 -30.21258297 50.50081498 -29.109375 53.79296875 C-29.41959595 52.46906128 -29.41959595 52.46906128 -29.73608398 51.1184082 C-30.50642117 47.82917008 -31.27603494 44.53976441 -32.04516602 41.25024414 C-32.37756041 39.82927833 -32.71023909 38.40837898 -33.04321289 36.98754883 C-33.523055 34.93979214 -34.00185849 32.89179491 -34.48046875 30.84375 C-34.76849365 29.61309814 -35.05651855 28.38244629 -35.35327148 27.11450195 C-39.18276455 10.29168852 -39.18276455 10.29168852 -36.05078125 3.49609375 C-27.51969302 -7.32382303 -11.05759309 -6.32740049 0 0 Z M-28.109375 57.79296875 C-27.109375 60.79296875 -27.109375 60.79296875 -27.109375 60.79296875 Z M-27.109375 61.79296875 C-26.109375 63.79296875 -26.109375 63.79296875 -26.109375 63.79296875 Z M-49.109375 63.79296875 C-48.119375 65.27796875 -48.119375 65.27796875 -47.109375 66.79296875 C-46.449375 66.46296875 -45.789375 66.13296875 -45.109375 65.79296875 C-46.429375 65.13296875 -47.749375 64.47296875 -49.109375 63.79296875 Z M-11.109375 63.79296875 C-10.109375 66.79296875 -10.109375 66.79296875 -10.109375 66.79296875 Z M-26.109375 65.79296875 C-25.109375 67.79296875 -25.109375 67.79296875 -25.109375 67.79296875 Z M-12.109375 66.79296875 C-11.109375 68.79296875 -11.109375 68.79296875 -11.109375 68.79296875 Z M13.890625 66.79296875 C13.560625 67.45296875 13.230625 68.11296875 12.890625 68.79296875 C13.880625 68.46296875 14.870625 68.13296875 15.890625 67.79296875 C15.230625 67.46296875 14.570625 67.13296875 13.890625 66.79296875 Z M10.890625 68.79296875 C10.560625 69.45296875 10.230625 70.11296875 9.890625 70.79296875 C10.880625 70.46296875 11.870625 70.13296875 12.890625 69.79296875 C12.230625 69.46296875 11.570625 69.13296875 10.890625 68.79296875 Z M14.890625 120.79296875 C15.880625 122.27796875 15.880625 122.27796875 16.890625 123.79296875 C17.550625 123.46296875 18.210625 123.13296875 18.890625 122.79296875 C17.570625 122.13296875 16.250625 121.47296875 14.890625 120.79296875 Z M-15.109375 122.79296875 C-14.109375 124.79296875 -14.109375 124.79296875 -14.109375 124.79296875 Z M-14.109375 125.79296875 C-13.109375 127.79296875 -13.109375 127.79296875 -13.109375 127.79296875 Z M-13.109375 128.79296875 C-12.109375 130.79296875 -12.109375 130.79296875 -12.109375 130.79296875 Z M-12.109375 131.79296875 C-11.109375 134.79296875 -11.109375 134.79296875 -11.109375 134.79296875 Z " fill="#F9EE04" transform="translate(135.109375,24.20703125)"/>
<path d="M0 0 C1.7714765 1.53810834 3.52103123 3.10175941 5.25 4.6875 C6.22453125 5.56921875 7.1990625 6.4509375 8.203125 7.359375 C26.98395096 24.90303215 41.00740443 50.93343268 42.42700195 76.92871094 C42.98184183 108.55679427 42.98184183 108.55679427 38.25 122.6875 C38.03569336 123.33525391 37.82138672 123.98300781 37.60058594 124.65039062 C27.37259573 154.51552651 6.00338827 177.51046245 -22.01953125 191.48828125 C-28.40558554 194.5395543 -34.89842681 196.89818818 -41.75 198.6875 C-42.41829834 198.86933838 -43.08659668 199.05117676 -43.77514648 199.23852539 C-52.28704001 201.27269442 -60.98756586 201.12835299 -69.6875 201.125 C-70.51325531 201.12573517 -71.33901062 201.12647034 -72.18978882 201.12722778 C-84.68122237 201.09796319 -96.03121663 200.35579268 -107.75 195.6875 C-108.43707031 195.43049316 -109.12414062 195.17348633 -109.83203125 194.90869141 C-136.95690255 184.66137802 -160.52110241 164.06904409 -172.73510742 137.59106445 C-185.189225 109.2011432 -187.29049648 77.04148655 -176 47.875 C-164.05463859 20.07217133 -143.02511026 -3.27175271 -114.7265625 -15.0390625 C-76.65045523 -30.1026362 -32.53136856 -25.69978116 0 0 Z M-148.75 18.6875 C-169.2119405 42.458839 -176.66613602 70.72058569 -174.75 101.6875 C-172.95794162 118.5922808 -166.66934158 134.90814314 -156.75 148.6875 C-156.24210937 149.41710937 -155.73421875 150.14671875 -155.2109375 150.8984375 C-138.32084879 173.94550436 -113.75216185 188.28924869 -85.71777344 193.03125 C-58.75907924 196.75519394 -31.12162442 190.43425654 -8.87109375 174.64453125 C-6.43485687 172.72157786 -4.08749256 170.7286319 -1.75 168.6875 C-1.09 168.17058594 -0.43 167.65367187 0.25 167.12109375 C19.24743213 151.83888524 30.38471305 127.25753296 34.25 103.6875 C34.67576434 98.99002014 34.77567478 94.34017273 34.75 89.625 C34.74355469 88.3678418 34.73710937 87.11068359 34.73046875 85.81542969 C34.18720778 57.7445634 22.69346607 32.88822381 2.78173828 13.14160156 C-16.93712658 -5.57780538 -42.31144358 -15.76577957 -69.5 -15.625 C-70.64525146 -15.61936035 -71.79050293 -15.6137207 -72.97045898 -15.60791016 C-102.25561185 -15.18898792 -128.53965613 -2.39148329 -148.75 18.6875 Z " fill="#EBE10D" transform="translate(182.75,23.3125)"/>
<path d="M0 0 C0.66 0.66 1.32 1.32 2 2 C1.67933125 7.57421747 0.43672386 12.11604905 -1.625 17.33203125 C-1.88779755 18.00245453 -2.15059509 18.67287781 -2.4213562 19.36361694 C-3.27011423 21.51771595 -4.13360498 23.66543958 -5 25.8125 C-5.29312073 26.54522125 -5.58624146 27.2779425 -5.88824463 28.03286743 C-9.40237738 36.81147783 -12.95209408 45.5823307 -16.875 54.1875 C-17.1946875 54.91493408 -17.514375 55.64236816 -17.84375 56.3918457 C-20.21414644 61.38979288 -23.34340082 64.96089508 -28 68 C-33.90347946 69.74201033 -37.89739443 68.92820896 -43.4765625 66.421875 C-51.80885974 61.72689637 -57.98576418 55.00128958 -60.6484375 45.74609375 C-61.12619312 42.03380346 -60.67695436 39.88512192 -58.38671875 36.890625 C-55.73512776 34.38100175 -52.93135083 32.16629599 -50 30 C-49.35643555 29.52046875 -48.71287109 29.0409375 -48.04980469 28.546875 C-43.54781217 25.21300116 -38.99084748 21.96094193 -34.41845703 18.72460938 C-31.98163426 16.98690333 -29.56463208 15.22470253 -27.15234375 13.453125 C-26.36214844 12.8746582 -25.57195312 12.29619141 -24.7578125 11.70019531 C-23.26180947 10.6040079 -21.76813427 9.50463304 -20.27734375 8.40136719 C-16.70655048 5.79821892 -13.07550383 3.33623877 -9.28515625 1.0625 C-8.58398682 0.64097656 -7.88281738 0.21945313 -7.16040039 -0.21484375 C-4.37577421 -1.22686294 -2.79464789 -0.8938242 0 0 Z " fill="#FBEF03" transform="translate(102,121)"/>
<path d="M0 0 C0.33 0 0.66 0 1 0 C0.98952637 1.08007324 0.97905273 2.16014648 0.96826172 3.27294922 C0.93211806 7.27226459 0.90912016 11.27156546 0.89013672 15.27099609 C0.88006624 17.00344265 0.86640911 18.73587216 0.84912109 20.46826172 C0.82491838 22.95544639 0.81352761 25.44240675 0.8046875 27.9296875 C0.79436493 28.70682098 0.78404236 29.48395447 0.77340698 30.28463745 C0.77300729 32.19125493 0.8776786 34.09731036 1 36 C1.66 36.66 2.32 37.32 3 38 C3.33 37.01 3.66 36.02 4 35 C4.66 35 5.32 35 6 35 C3.57640624 52.75909223 -5.88920304 70.95104271 -18 84 C-18.99 84.495 -18.99 84.495 -20 85 C-20.33 84.01 -20.66 83.02 -21 82 C-21.66 82 -22.32 82 -23 82 C-23.33 83.98 -23.66 85.96 -24 88 C-25.32 87.01 -26.64 86.02 -28 85 C-24.96113806 79.69350245 -21.79656689 74.66023596 -18.0625 69.8125 C-7.72903723 55.75189131 -1.28727871 37.14718558 -0.68359375 19.7265625 C-0.64169922 18.57285156 -0.59980469 17.41914062 -0.55664062 16.23046875 C-0.51732422 15.04066406 -0.47800781 13.85085937 -0.4375 12.625 C-0.39431641 11.41199219 -0.35113281 10.19898437 -0.30664062 8.94921875 C-0.20094487 5.96624968 -0.09884679 2.98320258 0 0 Z " fill="#E4DC13" transform="translate(217,101)"/>
<path d="M0 0 C12.45711564 2.53365064 32.74869078 10.12303617 40 21 C39.34 21.33 38.68 21.66 38 22 C36.515 21.505 36.515 21.505 35 21 C35 21.66 35 22.32 35 23 C35.66 23 36.32 23 37 23 C37.495 25.475 37.495 25.475 38 28 C38.66 28 39.32 28 40 28 C39.67 28.66 39.34 29.32 39 30 C38.175 29.3709375 37.35 28.741875 36.5 28.09375 C16.79088261 13.36469132 -4.88925673 4.56787987 -29.75 4.6875 C-31.45700073 4.69052124 -31.45700073 4.69052124 -33.19848633 4.69360352 C-40.72212725 4.78302406 -47.63182189 5.4320804 -54.94921875 7.24609375 C-58.28299667 8.06993388 -61.59641397 8.55903225 -65 9 C-65.33 8.34 -65.66 7.68 -66 7 C-64.865625 6.855625 -63.73125 6.71125 -62.5625 6.5625 C-59.19222799 6.38828522 -59.19222799 6.38828522 -58 5 C-55.66702567 4.95907063 -53.33294775 4.95758277 -51 5 C-51 4.34 -51 3.68 -51 3 C-43.96234888 2.09608151 -36.96067715 1.89074012 -29.875 1.875 C-28.62348145 1.86823242 -28.62348145 1.86823242 -27.34667969 1.86132812 C-13.2105325 1.89473375 -13.2105325 1.89473375 -9 4 C-4.94857881 4.25860135 -3.45662331 4.30441554 0 2 C0 1.34 0 0.68 0 0 Z " fill="#D7CF19" transform="translate(143,4)"/>
<path d="M0 0 C1.65 0 3.3 0 5 0 C5 0.66 5 1.32 5 2 C6.155 1.9175 7.31 1.835 8.5 1.75 C13.90099973 1.72432171 18.89690188 3.06417825 24.0625 4.48925781 C24.71347656 4.66682617 25.36445312 4.84439453 26.03515625 5.02734375 C26.6062915 5.18968506 27.17742676 5.35202637 27.76586914 5.51928711 C33.8273285 6.82351763 39.81729331 7.14454623 46 7.09765625 C46.7211499 7.0962413 47.4422998 7.09482635 48.18530273 7.09336853 C50.45691324 7.08783381 52.72842 7.07529423 55 7.0625 C56.55338398 7.05747654 58.10676952 7.05291512 59.66015625 7.04882812 C63.44014328 7.03788589 67.22005414 7.0206676 71 7 C71.495 9.475 71.495 9.475 72 12 C65.91880695 13.57201711 60.24982485 14.3081862 53.9765625 14.30078125 C53.14973969 14.30506638 52.32291687 14.3093515 51.47103882 14.31376648 C49.73493356 14.31946745 47.99880444 14.3200416 46.26269531 14.31567383 C43.63824821 14.31251594 41.01493318 14.33601879 38.390625 14.36132812 C19.66418553 14.43573988 19.66418553 14.43573988 13 11 C10 7.54995883 10 7.54995883 10 6 C8.35 6 6.7 6 5 6 C5 5.34 5 4.68 5 4 C3.35 4 1.7 4 0 4 C0 2.68 0 1.36 0 0 Z " fill="#F2E80D" transform="translate(65,209)"/>
<path d="M0 0 C1.40234375 2.109375 1.40234375 2.109375 2 4 C-1.40340307 6.09440189 -4.04437178 6.25797575 -8 6 C-8.66 5.67 -9.32 5.34 -10 5 C-18.32669657 3.71551498 -26.66283244 3.88668589 -35.0625 3.9375 C-36.51497241 3.94252586 -37.96744651 3.94708684 -39.41992188 3.95117188 C-42.94665015 3.96208958 -46.47331402 3.97929414 -50 4 C-50 4.66 -50 5.32 -50 6 C-51.010625 6.12375 -52.02125 6.2475 -53.0625 6.375 C-56.87937612 6.98085335 -60.31500112 7.87193912 -64 9 C-64 9.33 -64 9.66 -64 10 C-66.31 10.33 -68.62 10.66 -71 11 C-71 10.34 -71 9.68 -71 9 C-71.66 8.67 -72.32 8.34 -73 8 C-62.41602317 0.86196911 -62.41602317 0.86196911 -56.125 -0.625 C-55.13757813 -0.86476562 -54.15015625 -1.10453125 -53.1328125 -1.3515625 C-37.22706836 -4.64377388 -15.4902111 -5.90522984 0 0 Z " fill="#F2E809" transform="translate(142,3)"/>
<path d="M0 0 C2.475 0.495 2.475 0.495 5 1 C7.6796155 9.30999806 8.30143192 17.13443549 8.3125 25.8125 C8.31765625 26.79033447 8.3228125 27.76816895 8.328125 28.77563477 C8.27343056 34.51415574 7.63477669 39.49646892 6 45 C5.34 45 4.68 45 4 45 C3.67 46.32 3.34 47.64 3 49 C1.11463021 47.41721201 0.09951833 46.51638751 -0.3742218 44.05821228 C-0.37359238 43.32478104 -0.37296295 42.59134979 -0.37231445 41.83569336 C-0.37854324 41.00150375 -0.38477203 40.16731415 -0.39118958 39.30784607 C-0.38197983 38.4109053 -0.37277008 37.51396454 -0.36328125 36.58984375 C-0.36377975 35.66659805 -0.36427826 34.74335236 -0.36479187 33.79212952 C-0.36245179 31.8411341 -0.35272717 29.89013564 -0.33618164 27.93920898 C-0.31256333 24.94552772 -0.31562432 21.95273527 -0.32226562 18.95898438 C-0.31668981 17.06509883 -0.30958054 15.17121706 -0.30078125 13.27734375 C-0.30169266 12.37837875 -0.30260406 11.47941376 -0.30354309 10.5532074 C-0.29401108 9.72216995 -0.28447906 8.89113251 -0.2746582 8.03491211 C-0.27005081 7.30227646 -0.26544342 6.56964081 -0.26069641 5.81480408 C0 4 0 4 2 2 C1.34 2 0.68 2 0 2 C0 1.34 0 0.68 0 0 Z " fill="#F6EC0A" transform="translate(217,91)"/>
<path d="M0 0 C1.20577428 4.94367454 0.6290678 8.20862412 -1 13 C-1.66 13 -2.32 13 -3 13 C-3 13.99 -3 14.98 -3 16 C-3.66 16 -4.32 16 -5 16 C-5 17.65 -5 19.3 -5 21 C-5.66 21.33 -6.32 21.66 -7 22 C-7.77772405 24.33317216 -8.42415568 26.61435923 -9 29 C-9.66 29 -10.32 29 -11 29 C-11 29.99 -11 30.98 -11 32 C-11.66 32 -12.32 32 -13 32 C-13.33 32.99 -13.66 33.98 -14 35 C-14.99 34.34 -15.98 33.68 -17 33 C-16.50711896 27.24972118 -14.8512111 23.17058856 -12.125 18.125 C-9.78954501 13.67070746 -7.62531473 9.40443825 -6.1875 4.5625 C-5.5996875 2.7990625 -5.5996875 2.7990625 -5 1 C-2 0 -2 0 0 0 Z " fill="#F4EA0B" transform="translate(218,140)"/>
<path d="M0 0 C1 3 1 3 1 5 C2.32 5 3.64 5 5 5 C5 4.34 5 3.68 5 3 C5.66 3 6.32 3 7 3 C6.34887936 5.9065404 5.43106666 8.50227488 4.22265625 11.22265625 C3.87396484 12.00833984 3.52527344 12.79402344 3.16601562 13.60351562 C2.80185547 14.41498047 2.43769531 15.22644531 2.0625 16.0625 C1.52206055 17.28549805 1.52206055 17.28549805 0.97070312 18.53320312 C-0.52855089 21.89340963 -1.95145437 24.92718156 -4 28 C-4.33 26.35 -4.66 24.7 -5 23 C-4.34 23 -3.68 23 -3 23 C-3 21.02 -3 19.04 -3 17 C-4.32 17 -5.64 17 -7 17 C-6.67 18.65 -6.34 20.3 -6 22 C-6.66 22.33 -7.32 22.66 -8 23 C-8.79941308 25.52369457 -9.4936108 27.99718906 -10.125 30.5625 C-10.30675781 31.27341797 -10.48851562 31.98433594 -10.67578125 32.71679688 C-11.12444465 34.47602969 -11.56315957 36.23779417 -12 38 C-12.66 38 -13.32 38 -14 38 C-13.44721519 32.26003679 -12.33293179 27.22801578 -10.375 21.8125 C-9.98610596 20.71917358 -9.98610596 20.71917358 -9.58935547 19.60375977 C-7.0416111 12.68618829 -3.73258716 6.34981544 0 0 Z " fill="#EDE40D" transform="translate(16,53)"/>
<path d="M0 0 C3.35998684 -0.45346866 5.93639795 -0.68089376 8.87402344 1.19970703 C10.81194035 2.90530057 12.59670913 4.69131334 14.375 6.5625 C15.00277344 7.17158203 15.63054687 7.78066406 16.27734375 8.40820312 C20.30372505 12.51719916 21.83633094 15.21950655 22 21 C14.67584256 20.13833442 9.71960524 15.28146301 5 10 C5 9.01 5 8.02 5 7 C4.34 7 3.68 7 3 7 C2.67 5.35 2.34 3.7 2 2 C1.34 2 0.68 2 0 2 C0 1.34 0 0.68 0 0 Z " fill="#EAE313" transform="translate(178,25)"/>
<path d="M0 0 C1.69440559 2.54160838 3.18892189 5.11666227 4.66601562 7.78662109 C8.28851705 14.30608471 12.16454502 20.28811881 17 26 C15.68 26.33 14.36 26.66 13 27 C12.67 26.01 12.34 25.02 12 24 C11.34 23.67 10.68 23.34 10 23 C10.165 23.763125 10.33 24.52625 10.5 25.3125 C11 28 11 28 11 31 C4.81124104 25.37385549 0.06010454 18.28358147 -4 11 C-4 10.34 -4 9.68 -4 9 C-3.01 9 -2.02 9 -1 9 C-1 9.99 -1 10.98 -1 12 C-0.01 11.67 0.98 11.34 2 11 C1.855625 10.484375 1.71125 9.96875 1.5625 9.4375 C0.84190099 6.31490429 0.42733561 3.17449308 0 0 Z " fill="#D8D119" transform="translate(16,154)"/>
<path d="M0 0 C0.66 0 1.32 0 2 0 C1.73720469 3.76673277 1.25801189 5.67649895 -1.1237793 8.6628418 C-4.62604389 11.50871048 -6.36901704 11.64804868 -10.83203125 11.70703125 C-12.12431641 11.73603516 -13.41660156 11.76503906 -14.74804688 11.79492188 C-16.10286219 11.8013102 -17.45768013 11.80716288 -18.8125 11.8125 C-20.1868884 11.83565748 -21.56124144 11.86102545 -22.93554688 11.88867188 C-26.29065515 11.94753342 -29.64445874 11.98382337 -33 12 C-33 12.33 -33 12.66 -33 13 C-35.72923388 13.0270817 -38.45819637 13.04687847 -41.1875 13.0625 C-41.95642578 13.07087891 -42.72535156 13.07925781 -43.51757812 13.08789062 C-47.52318859 13.10508209 -51.07198381 12.82439846 -55 12 C-58.10029784 11.73580963 -61.20482571 11.58711968 -64.3125 11.4375 C-65.14845703 11.39431641 -65.98441406 11.35113281 -66.84570312 11.30664062 C-68.89696935 11.20114693 -70.9484648 11.10012685 -73 11 C-69.48202372 8.83069546 -66.66881375 8.75709762 -62.57910156 8.77294922 C-60.62753143 8.77317581 -60.62753143 8.77317581 -58.63653564 8.77340698 C-57.22123053 8.78361954 -55.80592699 8.79405152 -54.390625 8.8046875 C-52.93902786 8.80841929 -51.4874282 8.81126548 -50.03582764 8.81326294 C-46.22175093 8.82088636 -42.40782738 8.84052365 -38.59381104 8.8626709 C-34.69928051 8.88315722 -30.80472516 8.89227061 -26.91015625 8.90234375 C-19.2733678 8.92377085 -11.63670539 8.95789108 -4 9 C-4 8.34 -4 7.68 -4 7 C-3.01 7 -2.02 7 -1 7 C-0.67 4.69 -0.34 2.38 0 0 Z " fill="#EBE22C" transform="translate(201,106)"/>
<path d="M0 0 C0.495 2.475 0.495 2.475 1 5 C-6.39433415 6.97755448 -13.24254005 7.27220604 -20.875 7.1875 C-22.56496094 7.1865332 -22.56496094 7.1865332 -24.2890625 7.18554688 C-32.5771989 7.1409337 -32.5771989 7.1409337 -36 6 C-36 5.34 -36 4.68 -36 4 C-36.66 3.67 -37.32 3.34 -38 3 C-36.91900024 2.970271 -36.91900024 2.970271 -35.81616211 2.93994141 C-32.52293328 2.8441634 -29.23029332 2.73469883 -25.9375 2.625 C-24.80376953 2.5940625 -23.67003906 2.563125 -22.50195312 2.53125 C-14.8714497 2.26429361 -7.48003736 -0.36487987 0 0 Z " fill="#FDF005" transform="translate(136,216)"/>
<path d="M0 0 C0.33 0.66 0.66 1.32 1 2 C0.01 3.485 0.01 3.485 -1 5 C-0.34 5.66 0.32 6.32 1 7 C1.66 5.02 2.32 3.04 3 1 C6 2 6 2 6.9765625 3.74609375 C7 6 7 6 5.0859375 8.47265625 C4.19132812 9.32730469 3.29671875 10.18195313 2.375 11.0625 C1.49585938 11.91972656 0.61671875 12.77695313 -0.2890625 13.66015625 C-2.75800682 15.79113269 -5.1504746 17.43121796 -8 19 C-8 18.01 -8 17.02 -8 16 C-7.34 16 -6.68 16 -6 16 C-6.33 14.68 -6.66 13.36 -7 12 C-7.66 12.66 -8.32 13.32 -9 14 C-9.99 14 -10.98 14 -12 14 C-12 14.66 -12 15.32 -12 16 C-12.99 16 -13.98 16 -15 16 C-15 16.66 -15 17.32 -15 18 C-16.32 17.67 -17.64 17.34 -19 17 C-18.14728516 16.34644531 -18.14728516 16.34644531 -17.27734375 15.6796875 C-7.7308705 8.75249826 -7.7308705 8.75249826 0 0 Z " fill="#DBD415" transform="translate(191,181)"/>
<path d="M0 0 C-2.97 1.65 -5.94 3.3 -9 5 C-8.67 5.99 -8.34 6.98 -8 8 C-4.535 7.505 -4.535 7.505 -1 7 C-3.55008717 9.55008717 -6.03828385 10.4515697 -9.375 11.8125 C-10.51710938 12.29332031 -11.65921875 12.77414063 -12.8359375 13.26953125 C-16 14 -16 14 -18.2421875 12.6171875 C-18.82226562 12.08351563 -19.40234375 11.54984375 -20 11 C-22.6984589 11.22197813 -22.6984589 11.22197813 -25 12 C-25.33 11.34 -25.66 10.68 -26 10 C-23.50252977 8.72398669 -21.00222064 7.45413829 -18.5 6.1875 C-17.80390625 5.83107422 -17.1078125 5.47464844 -16.390625 5.10742188 C-3.14919355 -1.57459677 -3.14919355 -1.57459677 0 0 Z " fill="#E2DB12" transform="translate(79,6)"/>
<path d="M0 0 C0.66 0 1.32 0 2 0 C2.125 6.75 2.125 6.75 1 9 C2.32 9.33 3.64 9.66 5 10 C5 10.99 5 11.98 5 13 C5.66 13.33 6.32 13.66 7 14 C5.33333333 14 3.66666667 14 2 14 C1.01 15.485 1.01 15.485 0 17 C-4.99566123 17.56554655 -8.0466987 17.12102734 -12 14 C-13.7849352 12.06754949 -15.38158418 10.08082034 -17 8 C-14 9 -11 10 -8 11 C-8 9.68 -8 8.36 -8 7 C-3.125 7.875 -3.125 7.875 -2 9 C-1.67 7.68 -1.34 6.36 -1 5 C-0.34 5 0.32 5 1 5 C0.67 3.35 0.34 1.7 0 0 Z " fill="#FBEF09" transform="translate(108,83)"/>
<path d="M0 0 C5.94 2.64 11.88 5.28 18 8 C18 8.33 18 8.66 18 9 C16.02 9 14.04 9 12 9 C12 8.34 12 7.68 12 7 C10.35 7.33 8.7 7.66 7 8 C7 8.66 7 9.32 7 10 C8.65 10.33 10.3 10.66 12 11 C12 11.66 12 12.32 12 13 C15.465 12.505 15.465 12.505 19 12 C18.67 12.66 18.34 13.32 18 14 C18.99 14.66 19.98 15.32 21 16 C16.44510647 17.48529137 13.41264019 15.79906694 9.25 13.875 C8.53714844 13.5545874 7.82429688 13.2341748 7.08984375 12.90405273 C2.12226465 10.62970522 -2.49134056 8.09970337 -7 5 C-5 4 -5 4 -3.0546875 4.55859375 C-2.33539063 4.84863281 -1.61609375 5.13867188 -0.875 5.4375 C-0.15054688 5.72496094 0.57390625 6.01242188 1.3203125 6.30859375 C1.87460937 6.53675781 2.42890625 6.76492187 3 7 C2.505 6.5875 2.01 6.175 1.5 5.75 C0 4 0 4 0 0 Z " fill="#DCD516" transform="translate(58,202)"/>
<path d="M0 0 C0.33 0 0.66 0 1 0 C0.98952637 1.08007324 0.97905273 2.16014648 0.96826172 3.27294922 C0.93211806 7.27226459 0.90912016 11.27156546 0.89013672 15.27099609 C0.88006624 17.00344265 0.86640911 18.73587216 0.84912109 20.46826172 C0.82491838 22.95544639 0.81352761 25.44240675 0.8046875 27.9296875 C0.79436493 28.70682098 0.78404236 29.48395447 0.77340698 30.28463745 C0.77300729 32.19125493 0.8776786 34.09731036 1 36 C1.66 36.66 2.32 37.32 3 38 C3.33 37.01 3.66 36.02 4 35 C4.66 35 5.32 35 6 35 C4.77078205 43.12751571 2.1149283 50.41479291 -1 58 C-1.33 58 -1.66 58 -2 58 C-2 56.02 -2 54.04 -2 52 C-1.34 52 -0.68 52 0 52 C0.33 47.71 0.66 43.42 1 39 C-0.98 39.495 -0.98 39.495 -3 40 C-2.10285255 32.56649257 -2.10285255 32.56649257 -1.5 29.24609375 C-1.00695217 26.04513482 -0.79570565 22.9617916 -0.68359375 19.7265625 C-0.64169922 18.57285156 -0.59980469 17.41914062 -0.55664062 16.23046875 C-0.49766602 14.44576172 -0.49766602 14.44576172 -0.4375 12.625 C-0.39431641 11.41199219 -0.35113281 10.19898437 -0.30664062 8.94921875 C-0.20094487 5.96624968 -0.09884679 2.98320258 0 0 Z " fill="#D1C917" transform="translate(217,101)"/>
<path d="M0 0 C0.78697266 0.16435547 0.78697266 0.16435547 1.58984375 0.33203125 C3.30779075 0.6836244 5.02823566 1.02307258 6.75 1.35546875 C9.007044 1.80307964 11.25695893 2.28758547 13.5 2.80078125 C26.91478982 5.69564163 40.3379855 5.29447251 54 5 C49.25619846 9.74380154 40.51224444 8.22210582 34.25 8.25 C33.10789063 8.270625 31.96578125 8.29125 30.7890625 8.3125 C23.85162346 8.34439627 18.42759866 7.52185604 12 5 C9.8199164 4.40940879 7.63310697 3.8424741 5.4375 3.3125 C4.40496094 3.06113281 3.37242188 2.80976563 2.30859375 2.55078125 C1.16583984 2.27814453 1.16583984 2.27814453 0 2 C0 1.34 0 0.68 0 0 Z " fill="#D3CD23" transform="translate(76,211)"/>
<path d="M0 0 C-2.22189824 2.22189824 -4.08482708 2.92598892 -7 4 C-5.74458443 6.51083114 -4.49936512 6.87125446 -2 8 C-12.87400099 11.26330401 -23.06559907 11.36049577 -34.3125 11.1875 C-36.03579549 11.17241326 -37.75910387 11.15873197 -39.48242188 11.14648438 C-43.65527345 11.11382373 -47.82748952 11.06226674 -52 11 C-52 10.67 -52 10.34 -52 10 C-51.00669678 9.98018066 -50.01339355 9.96036133 -48.98999023 9.93994141 C-45.27913506 9.86345117 -41.56864997 9.77480342 -37.8581543 9.68261719 C-36.25699204 9.64450581 -34.65574937 9.60962287 -33.05444336 9.578125 C-30.74303586 9.53208389 -28.43217356 9.47415792 -26.12109375 9.4140625 C-25.0597245 9.39673569 -25.0597245 9.39673569 -23.97691345 9.37905884 C-19.28835562 9.24209418 -15.35971759 8.65775884 -11 7 C-10.67 6.01 -10.34 5.02 -10 4 C-11.98 3.67 -13.96 3.34 -16 3 C-16 2.67 -16 2.34 -16 2 C-13.89829344 1.46932659 -11.79352402 0.95077143 -9.6875 0.4375 C-8.51574219 0.14746094 -7.34398437 -0.14257812 -6.13671875 -0.44140625 C-3 -1 -3 -1 0 0 Z " fill="#CFC910" transform="translate(146,213)"/>
<path d="M0 0 C2.97353044 0.86727971 4.1280856 1.48310938 6 3.875 C5.01 4.37 5.01 4.37 4 4.875 C4 4.215 4 3.555 4 2.875 C-0.455 3.37 -0.455 3.37 -5 3.875 C-4.34 4.535 -3.68 5.195 -3 5.875 C-2.4375 7.94140625 -2.4375 7.94140625 -2 10.4375 C-1.11170421 15.28082702 -0.08458684 20.0718297 1 24.875 C0.34 25.205 -0.32 25.535 -1 25.875 C-1.65213292 27.89963255 -1.65213292 27.89963255 -2 29.875 C-4.07949708 25.8823656 -5.32531908 23.31139889 -4.5625 18.8125 C-3.96129146 14.60404019 -4.55931862 12.77331433 -6 8.875 C-6.3143094 5.66904416 -6.50312818 3.74149853 -4.875 0.9375 C-3 -0.125 -3 -0.125 0 0 Z " fill="#DFD61A" transform="translate(122,124.125)"/>
<path d="M0 0 C0.33 0 0.66 0 1 0 C0.97905273 0.90016846 0.95810547 1.80033691 0.93652344 2.7277832 C0.5950224 19.65045644 0.41106943 35.56093949 5 52 C5.35047961 53.66314549 5.69224798 55.32842063 6 57 C5.01 57.495 5.01 57.495 4 58 C3.67 55.69 3.34 53.38 3 51 C2.34 51 1.68 51 1 51 C0.90912109 49.93458984 0.90912109 49.93458984 0.81640625 48.84765625 C0.73261719 47.92855469 0.64882812 47.00945312 0.5625 46.0625 C0.48128906 45.14597656 0.40007813 44.22945312 0.31640625 43.28515625 C0.23955024 41.03840268 0.23955024 41.03840268 -1 40 C-1.10105822 37.21174652 -1.1396984 34.44879127 -1.1328125 31.66015625 C-1.13376923 30.82286484 -1.13472595 29.98557343 -1.13571167 29.12290955 C-1.13639355 27.34829636 -1.13453872 25.57368069 -1.13037109 23.79907227 C-1.1250296 21.0775798 -1.13031235 18.35625288 -1.13671875 15.63476562 C-1.13605784 13.91406213 -1.13477641 12.19335875 -1.1328125 10.47265625 C-1.13483673 9.65491226 -1.13686096 8.83716827 -1.13894653 7.99464417 C-1.11495507 2.22991015 -1.11495507 2.22991015 0 0 Z " fill="#AEA51A" transform="translate(8,92)"/>
<path d="M0 0 C0.66 0.33 1.32 0.66 2 1 C2.625 3.0625 2.625 3.0625 3 5 C1.75823305 5.70226141 0.50614401 6.38629109 -0.75 7.0625 C-1.44609375 7.44535156 -2.1421875 7.82820312 -2.859375 8.22265625 C-5.36140628 9.1312406 -6.5332355 8.88336837 -9 8 C-9 8.66 -9 9.32 -9 10 C-10.65 10 -12.3 10 -14 10 C-14 8.33333333 -14 6.66666667 -14 5 C-13.32453125 4.80664062 -12.6490625 4.61328125 -11.953125 4.4140625 C-10.61507812 4.02347656 -10.61507812 4.02347656 -9.25 3.625 C-8.36828125 3.36976563 -7.4865625 3.11453125 -6.578125 2.8515625 C-4.00576767 2.08115206 -4.00576767 2.08115206 -1.796875 0.8359375 C-1.20390625 0.56007812 -0.6109375 0.28421875 0 0 Z " fill="#EEE50A" transform="translate(170,203)"/>
<path d="M0 0 C1.20577428 4.94367454 0.6290678 8.20862412 -1 13 C-1.66 13 -2.32 13 -3 13 C-3 12.34 -3 11.68 -3 11 C-5.87420123 13.71604715 -5.87420123 13.71604715 -8 17 C-8.66 17 -9.32 17 -10 17 C-9.27019021 14.53810831 -8.5349034 12.07818644 -7.7890625 9.62109375 C-7.17052414 7.56644404 -6.57989837 5.50338795 -6 3.4375 C-5.67 2.633125 -5.34 1.82875 -5 1 C-2 0 -2 0 0 0 Z " fill="#EBE110" transform="translate(218,140)"/>
<path d="M0 0 C1.9375 0.375 1.9375 0.375 4 1 C4.33 1.66 4.66 2.32 5 3 C4.01 3 3.02 3 2 3 C2.12375 3.721875 2.2475 4.44375 2.375 5.1875 C2 8 2 8 -0.6875 10.8125 C-3.9799822 12.9867807 -5.19207747 13.55998861 -9 13 C-7.87548273 10.0280615 -6.77706209 7.66559313 -5 5 C-5 4.34 -5 3.68 -5 3 C-3.68 3 -2.36 3 -1 3 C-0.67 2.01 -0.34 1.02 0 0 Z " fill="#F0E713" transform="translate(42,26)"/>
<path d="M0 0 C2.75 -0.3125 2.75 -0.3125 6 0 C8.1875 2.4375 8.1875 2.4375 10 5 C10.99 5.33 11.98 5.66 13 6 C12.34 7.32 11.68 8.64 11 10 C10.01 10 9.02 10 8 10 C8 9.34 8 8.68 8 8 C6.824375 8.0928125 6.824375 8.0928125 5.625 8.1875 C4.325625 8.0946875 4.325625 8.0946875 3 8 C2.34 7.01 1.68 6.02 1 5 C0.01 4.67 -0.98 4.34 -2 4 C-1.34 2.68 -0.68 1.36 0 0 Z " fill="#F6ED0C" transform="translate(161,13)"/>
<path d="M0 0 C4.15151338 1.44202476 7.29978445 3.5010438 10.8125 6.125 C11.78832031 6.84945312 12.76414062 7.57390625 13.76953125 8.3203125 C14.50558594 8.87460938 15.24164063 9.42890625 16 10 C14 12 14 12 11.6171875 12.1953125 C10.71226563 12.17210938 9.80734375 12.14890625 8.875 12.125 C7.50988281 12.09792969 7.50988281 12.09792969 6.1171875 12.0703125 C5.41851562 12.04710938 4.71984375 12.02390625 4 12 C4 9.36 4 6.72 4 4 C2.68 3.34 1.36 2.68 0 2 C0 1.34 0 0.68 0 0 Z " fill="#DDD714" transform="translate(52,65)"/>
<path d="M0 0 C0.66 0.99 1.32 1.98 2 3 C-0.87821513 7.64942443 -3.95209924 11.30409061 -8 15 C-8.66 15 -9.32 15 -10 15 C-10.8125 12.3125 -10.8125 12.3125 -11 9 C-8.875 6.0625 -8.875 6.0625 -6 4 C-3.1875 4.1875 -3.1875 4.1875 -1 5 C-0.67 3.35 -0.34 1.7 0 0 Z " fill="#F1E912" transform="translate(195,148)"/>
<path d="M0 0 C1.98 0 3.96 0 6 0 C6.33 0.66 6.66 1.32 7 2 C6.01 2.66 5.02 3.32 4 4 C4.66 4.66 5.32 5.32 6 6 C1.91569792 8.72286806 -0.14590877 8.38524534 -5 8 C-5.66 7.01 -6.32 6.02 -7 5 C-4.61426621 3.10786631 -2.92824652 1.97608217 0 1 C0 0.67 0 0.34 0 0 Z " fill="#EAE10D" transform="translate(145,212)"/>
<path d="M0 0 C1.98841412 2.98262118 3.53671732 5.97640675 5.125 9.1875 C5.66382813 10.27417969 6.20265625 11.36085937 6.7578125 12.48046875 C7.16773438 13.31191406 7.57765625 14.14335937 8 15 C6.02 15.33 4.04 15.66 2 16 C2 16.99 2 17.98 2 19 C-0.61724095 16.63202009 -2.32861729 14.10399646 -4 11 C-4 10.34 -4 9.68 -4 9 C-3.01 9 -2.02 9 -1 9 C-1 9.99 -1 10.98 -1 12 C-0.01 11.67 0.98 11.34 2 11 C1.855625 10.484375 1.71125 9.96875 1.5625 9.4375 C0.84190099 6.31490429 0.42733561 3.17449308 0 0 Z " fill="#DED717" transform="translate(16,154)"/>
<path d="M0 0 C0.66 0 1.32 0 2 0 C0.97588356 6.05328423 -1.5117526 11.42886632 -3.875 17.0625 C-4.32230469 18.15111328 -4.76960938 19.23972656 -5.23046875 20.36132812 C-5.66746094 21.40869141 -6.10445313 22.45605469 -6.5546875 23.53515625 C-6.95155762 24.487854 -7.34842773 25.44055176 -7.75732422 26.42211914 C-8.94653252 28.88908388 -10.27783639 30.87990986 -12 33 C-11.21824485 28.15311808 -9.60155722 23.6233633 -8 19 C-7.34 19 -6.68 19 -6 19 C-6 17.02 -6 15.04 -6 13 C-5.34 13 -4.68 13 -4 13 C-4 11.35 -4 9.7 -4 8 C-3.34 8 -2.68 8 -2 8 C-2 6.35 -2 4.7 -2 3 C-1.34 3 -0.68 3 0 3 C0 2.01 0 1.02 0 0 Z " fill="#C7C020" transform="translate(95,144)"/>
<path d="M0 0 C0.33 0.66 0.66 1.32 1 2 C-3.455 2.495 -3.455 2.495 -8 3 C-8 3.99 -8 4.98 -8 6 C-8.99 6 -9.98 6 -11 6 C-11.2475 6.639375 -11.495 7.27875 -11.75 7.9375 C-13 10 -13 10 -15.125 10.75 C-16.053125 10.87375 -16.053125 10.87375 -17 11 C-17 11.99 -17 12.98 -17 14 C-17.66 14 -18.32 14 -19 14 C-19 14.99 -19 15.98 -19 17 C-19.66 17 -20.32 17 -21 17 C-19.4812166 10.24985156 -15.10428137 5.73325172 -10.0390625 1.2734375 C-6.69126344 -0.81733356 -3.87225668 -0.19361283 0 0 Z " fill="#D8D21F" transform="translate(48,61)"/>
<path d="M0 0 C8.15429586 6.50109615 8.15429586 6.50109615 10 11 C9.6875 13.8125 9.6875 13.8125 9 16 C5.39426104 16 4.58663434 15.18292538 1.8125 13 C1.09707031 12.443125 0.38164063 11.88625 -0.35546875 11.3125 C-1.16951172 10.6628125 -1.16951172 10.6628125 -2 10 C-0.68 9.67 0.64 9.34 2 9 C2 9.66 2 10.32 2 11 C2.66 10.67 3.32 10.34 4 10 C3.39561204 6.61542745 2.06998635 4.6999822 0 2 C0 1.34 0 0.68 0 0 Z " fill="#DCD512" transform="translate(38,186)"/>
<path d="M0 0 C0.33 0 0.66 0 1 0 C1 2.31 1 4.62 1 7 C1.66 7 2.32 7 3 7 C3 7.99 3 8.98 3 10 C3.66 10 4.32 10 5 10 C5.33 11.32 5.66 12.64 6 14 C7.32 13.67 8.64 13.34 10 13 C10 14.65 10 16.3 10 18 C12.63904371 19.41377341 15.07120629 20.37240135 18 21 C18 22.65 18 24.3 18 26 C15.11950883 24.69317199 13.0391257 23.29498997 10.80078125 21.06640625 C10.23166016 20.49986328 9.66253906 19.93332031 9.07617188 19.34960938 C8.49416016 18.75986328 7.91214844 18.17011719 7.3125 17.5625 C6.71888672 16.97662109 6.12527344 16.39074219 5.51367188 15.78710938 C4.94841797 15.21927734 4.38316406 14.65144531 3.80078125 14.06640625 C3.28684814 13.55021729 2.77291504 13.03402832 2.2434082 12.50219727 C-0.80706821 8.81682885 -0.07367742 4.49432238 0 0 Z " fill="#D3CD1E" transform="translate(52,47)"/>
<path d="M0 0 C2.66735273 2.48952921 4.55746343 4.63408134 6 8 C4.68 8.33 3.36 8.66 2 9 C2.33 10.65 2.66 12.3 3 14 C2.01 14 1.02 14 0 14 C-1.82421875 12.1015625 -1.82421875 12.1015625 -3.6875 9.625 C-4.31011719 8.81289063 -4.93273437 8.00078125 -5.57421875 7.1640625 C-7 5 -7 5 -7 3 C-6.4225 3.309375 -5.845 3.61875 -5.25 3.9375 C-3.15705816 4.92583364 -1.25464725 5.5168613 1 6 C0.67 4.02 0.34 2.04 0 0 Z " fill="#DAD317" transform="translate(199,40)"/>
<path d="M0 0 C3 2.5625 3 2.5625 5 5 C3.68 5.33 2.36 5.66 1 6 C0.67 5.01 0.34 4.02 0 3 C-4.29 2.67 -8.58 2.34 -13 2 C-13 2.66 -13 3.32 -13 4 C-16.44450737 6.29633824 -18.93812283 6.54016485 -23 7 C-20.87528271 4.68333005 -18.88372366 3.25041422 -16.0625 1.875 C-15.39347656 1.54242188 -14.72445312 1.20984375 -14.03515625 0.8671875 C-9.32952344 -1.1378998 -4.9600265 -1.48309703 0 0 Z " fill="#D3CC20" transform="translate(192,75)"/>
<path d="M0 0 C1.32 0.33 2.64 0.66 4 1 C-14.85714286 14 -14.85714286 14 -19 14 C-18.875 12.125 -18.875 12.125 -18 10 C-15 8.875 -15 8.875 -12 8 C-11.67 7.34 -11.34 6.68 -11 6 C-10.01 6 -9.02 6 -8 6 C-8 5.34 -8 4.68 -8 4 C-4.91190305 2.23537317 -3.76687864 2 0 2 C0 1.34 0 0.68 0 0 Z " fill="#D8D019" transform="translate(72,131)"/>
<path d="M0 0 C1.32 0 2.64 0 4 0 C4 1.98 4 3.96 4 6 C3.34 6 2.68 6 2 6 C2.33 7.98 2.66 9.96 3 12 C1.68 12.33 0.36 12.66 -1 13 C-1.33 14.32 -1.66 15.64 -2 17 C-2.66 17 -3.32 17 -4 17 C-3.66666667 15 -3.33333333 13 -3 11 C-2.855625 9.906875 -2.71125 8.81375 -2.5625 7.6875 C-2.376875 6.800625 -2.19125 5.91375 -2 5 C-1.34 4.67 -0.68 4.34 0 4 C0 2.68 0 1.36 0 0 Z " fill="#FBF105" transform="translate(9,70)"/>
<path d="M0 0 C2.1875 0.875 2.1875 0.875 4.1875 2.875 C4.15462417 5.60369407 3.62352229 8.1716618 3.1875 10.875 C2.836875 10.25625 2.48625 9.6375 2.125 9 C-0.51799108 6.10123559 -3.04803199 5.74889436 -6.8125 4.875 C-7.8025 4.545 -8.7925 4.215 -9.8125 3.875 C-3.57809546 -0.15902647 -3.57809546 -0.15902647 0 0 Z " fill="#DED714" transform="translate(99.8125,120.125)"/>
<path d="M0 0 C0.70602859 0.02502594 1.41205719 0.05005188 2.13948059 0.07583618 C4.39166074 0.15792509 6.64294916 0.25455502 8.89453125 0.3515625 C10.42248977 0.40981359 11.95048474 0.46711664 13.47851562 0.5234375 C17.22186586 0.6634868 20.96448213 0.81657856 24.70703125 0.9765625 C24.70703125 1.3065625 24.70703125 1.6365625 24.70703125 1.9765625 C27.18203125 2.4715625 27.18203125 2.4715625 29.70703125 2.9765625 C29.70703125 3.3065625 29.70703125 3.6365625 29.70703125 3.9765625 C26.97779737 4.0036442 24.24883488 4.02344097 21.51953125 4.0390625 C20.75060547 4.04744141 19.98167969 4.05582031 19.18945312 4.06445312 C15.18384266 4.08164459 11.63504744 3.80096096 7.70703125 2.9765625 C4.60673341 2.71237213 1.50220554 2.56368218 -1.60546875 2.4140625 C-2.44142578 2.37087891 -3.27738281 2.32769531 -4.13867188 2.28320312 C-6.1899381 2.17770943 -8.24143355 2.07668935 -10.29296875 1.9765625 C-6.65924342 -0.44592105 -4.17216033 -0.19624957 0 0 Z " fill="#938C0A" transform="translate(138.29296875,115.0234375)"/>
<path d="M0 0 C1.98 0.66 3.96 1.32 6 2 C5.38125 2.268125 4.7625 2.53625 4.125 2.8125 C1.7004767 3.95556848 1.7004767 3.95556848 0 7 C0.61875 7.12375 1.2375 7.2475 1.875 7.375 C4 8 4 8 6 10 C5.01 10.495 5.01 10.495 4 11 C1.23325418 9.92664301 -1.43194258 8.79739939 -4.125 7.5625 C-4.87910156 7.22412109 -5.63320312 6.88574219 -6.41015625 6.53710938 C-8.27659331 5.69839399 -10.1387143 4.85008607 -12 4 C-12 3.67 -12 3.34 -12 3 C-8.04 3 -4.08 3 0 3 C0 2.01 0 1.02 0 0 Z " fill="#D2CC19" transform="translate(159,10)"/>
<path d="M0 0 C0.33 0 0.66 0 1 0 C1.93741778 3.92601703 2.71186499 7.44159285 0.98828125 11.21484375 C0.06792059 12.67318027 -0.85666743 14.12885623 -1.78515625 15.58203125 C-3.9122338 19.81566792 -3.90399146 24.33049394 -4 29 C-6 27 -6 27 -6.15234375 25.21484375 C-5.3298774 16.49670044 -2.61456098 8.31642643 0 0 Z " fill="#CAC51D" transform="translate(92,167)"/>
<path d="M0 0 C0.66 0.33 1.32 0.66 2 1 C0 4 0 4 -1.9375 4.875 C-4.66787189 6.36429376 -5.46736205 8.35271628 -7 11 C-7.66 11 -8.32 11 -9 11 C-8.67 11.53625 -8.34 12.0725 -8 12.625 C-6.77300796 15.5391061 -6.85766714 17.86867708 -7 21 C-6.34 21 -5.68 21 -5 21 C-5.33 22.32 -5.66 23.64 -6 25 C-9.01998253 20.56440066 -10.97385959 16.81596801 -10.8046875 11.35546875 C-9.06657372 6.26768908 -4.15813079 3.1408738 0 0 Z " fill="#D4CF22" transform="translate(52,151)"/>
<path d="M0 0 C0.99 0 1.98 0 3 0 C1.0827282 7.50931455 -1.24049015 14.75803759 -4 22 C-6 19 -6 19 -7 16 C-6.34 16 -5.68 16 -5 16 C-5 14.35 -5 12.7 -5 11 C-4.03320312 10.64808594 -4.03320312 10.64808594 -3.046875 10.2890625 C-0.7922092 9.18838927 -0.7922092 9.18838927 -0.390625 6.8359375 C-0.34421875 6.02382812 -0.2978125 5.21171875 -0.25 4.375 C-0.19328125 3.55773437 -0.1365625 2.74046875 -0.078125 1.8984375 C-0.05234375 1.27195312 -0.0265625 0.64546875 0 0 Z " fill="#E9DE19" transform="translate(129,66)"/>
<path d="M0 0 C0.66 0 1.32 0 2 0 C1.55810312 5.96948418 -0.2660757 9.85233742 -3.4375 14.875 C-3.84548828 15.55046875 -4.25347656 16.2259375 -4.67382812 16.921875 C-7.70996873 21.85498436 -7.70996873 21.85498436 -10 23 C-10 21.35 -10 19.7 -10 18 C-8.68 17.34 -7.36 16.68 -6 16 C-6 15.01 -6 14.02 -6 13 C-5.34 13 -4.68 13 -4 13 C-4.020625 12.236875 -4.04125 11.47375 -4.0625 10.6875 C-4 8 -4 8 -3 5 C-2.01 5 -1.02 5 0 5 C0 3.35 0 1.7 0 0 Z " fill="#D6CE1E" transform="translate(213,156)"/>
<path d="M0 0 C0.33 0 0.66 0 1 0 C1.02501955 3.94693009 1.04300863 7.89382842 1.05493164 11.84082031 C1.06233777 13.83139675 1.07505474 15.82195117 1.08789062 17.8125 C1.10589603 24.94263919 0.92522041 31.92576686 0 39 C-1.485 39.495 -1.485 39.495 -3 40 C-2.10285255 32.56649257 -2.10285255 32.56649257 -1.5 29.24609375 C-1.00695217 26.04513482 -0.79570565 22.9617916 -0.68359375 19.7265625 C-0.64169922 18.57285156 -0.59980469 17.41914062 -0.55664062 16.23046875 C-0.49766602 14.44576172 -0.49766602 14.44576172 -0.4375 12.625 C-0.39431641 11.41199219 -0.35113281 10.19898437 -0.30664062 8.94921875 C-0.20094487 5.96624968 -0.09884679 2.98320258 0 0 Z " fill="#A59E18" transform="translate(217,101)"/>
<path d="M0 0 C0.33 0 0.66 0 1 0 C2.92676559 5.78029678 3.68147242 11.56876714 4.4921875 17.59765625 C5.07510525 21.50320519 5.93633864 25.20120943 7 29 C6.34 29.33 5.68 29.66 5 30 C4.35060264 27.62592408 3.70539947 25.2508361 3.0625 22.875 C2.88009766 22.20984375 2.69769531 21.5446875 2.50976562 20.859375 C0.99933798 15.25706155 -0.15060035 9.9396234 -0.0625 4.125 C-0.05347656 3.34382813 -0.04445312 2.56265625 -0.03515625 1.7578125 C-0.02355469 1.17773438 -0.01195312 0.59765625 0 0 Z " fill="#C4BE1B" transform="translate(0,118)"/>
<path d="M0 0 C0.66 0 1.32 0 2 0 C2.125 6.75 2.125 6.75 1 9 C2.32 9.33 3.64 9.66 5 10 C5 10.99 5 11.98 5 13 C5.66 13.33 6.32 13.66 7 14 C5.33333333 14 3.66666667 14 2 14 C1.01 15.485 1.01 15.485 0 17 C-3.625 17.1875 -3.625 17.1875 -7 17 C-7 16.67 -7 16.34 -7 16 C-5.02 16 -3.04 16 -1 16 C-1 12.37 -1 8.74 -1 5 C-0.34 5 0.32 5 1 5 C0.67 3.35 0.34 1.7 0 0 Z " fill="#C7C01E" transform="translate(108,83)"/>
<path d="M0 0 C3 1 3 1 4 2 C4.04063832 3.66617115 4.042721 5.33388095 4 7 C3.01 7.495 3.01 7.495 2 8 C1.34 7.67 0.68 7.34 0 7 C0 7.66 0 8.32 0 9 C-1.65 9.33 -3.3 9.66 -5 10 C-4.75 7.125 -4.75 7.125 -4 4 C-1.9375 2.625 -1.9375 2.625 0 2 C0 1.34 0 0.68 0 0 Z " fill="#F4EA0A" transform="translate(21,49)"/>
<path d="M0 0 C0.99 0 1.98 0 3 0 C5.40218242 3.10870666 7.57311955 6.01578243 8 10 C7.67 10.66 7.34 11.32 7 12 C6.34 11.67 5.68 11.34 5 11 C5 10.34 5 9.68 5 9 C3.68 9 2.36 9 1 9 C0.9175 8.21625 0.835 7.4325 0.75 6.625 C0.27193661 3.85250896 0.27193661 3.85250896 -2.0625 2.6875 C-2.701875 2.460625 -3.34125 2.23375 -4 2 C-2.68 2 -1.36 2 0 2 C0 1.34 0 0.68 0 0 Z " fill="#FBF10B" transform="translate(35,186)"/>
<path d="M0 0 C2.74171185 2.74171185 2.76212321 4.9814058 3.08203125 8.75390625 C3 11 3 11 1.5625 13.75 C-1.71405175 16.62697227 -5.21967154 18.84374469 -9 21 C-9 19.68 -9 18.36 -9 17 C-7.68 17 -6.36 17 -5 17 C-5 16.34 -5 15.68 -5 15 C-4.01 15 -3.02 15 -2 15 C-1.67 13.35 -1.34 11.7 -1 10 C-0.34 10 0.32 10 1 10 C0.67 6.7 0.34 3.4 0 0 Z " fill="#C3BE1D" transform="translate(182,54)"/>
<path d="M0 0 C0.66 0 1.32 0 2 0 C2 1.65 2 3.3 2 5 C1.34 5 0.68 5 0 5 C0 6.65 0 8.3 0 10 C-0.99 10.495 -0.99 10.495 -2 11 C-2.33 11.99 -2.66 12.98 -3 14 C-3.99 13.34 -4.98 12.68 -6 12 C-5.67 10.02 -5.34 8.04 -5 6 C-4.34 6 -3.68 6 -3 6 C-2.690625 5.195625 -2.38125 4.39125 -2.0625 3.5625 C-1 1 -1 1 0 0 Z " fill="#FCF003" transform="translate(213,151)"/>
<path d="M0 0 C2.31 0.33 4.62 0.66 7 1 C7 1.66 7 2.32 7 3 C8.06927734 2.98259766 8.06927734 2.98259766 9.16015625 2.96484375 C19.77812178 2.86480908 19.77812178 2.86480908 25 4 C25.33 4.66 25.66 5.32 26 6 C17.08316112 6.29722796 7.54999013 6.24917197 0 1 C0 0.67 0 0.34 0 0 Z " fill="#CFC921" transform="translate(29,100)"/>
<path d="M0 0 C1.7847964 5.0588931 -0.38277875 9.0836474 -2 14 C1.63 14 5.26 14 9 14 C6 17 6 17 2.5 17.5 C-1 17 -1 17 -3 15.125 C-4.44423787 10.61175664 -3.74447002 6.61930192 -3 2 C-2.34 2.33 -1.68 2.66 -1 3 C-0.67 2.01 -0.34 1.02 0 0 Z " fill="#A19A18" transform="translate(125,88)"/>
<path d="M0 0 C1.64666203 0.1135629 3.29236082 0.24117381 4.9375 0.375 C5.85402344 0.44460937 6.77054688 0.51421875 7.71484375 0.5859375 C8.84599609 0.79089844 8.84599609 0.79089844 10 1 C10.33 1.66 10.66 2.32 11 3 C10.67 3.99 10.34 4.98 10 6 C11.32 6.66 12.64 7.32 14 8 C13.67 8.66 13.34 9.32 13 10 C12.2575 9.319375 11.515 8.63875 10.75 7.9375 C8.25396314 5.70859515 8.25396314 5.70859515 5.8125 6.3125 C5.214375 6.539375 4.61625 6.76625 4 7 C3.34 6.67 2.68 6.34 2 6 C1.4375 4.0625 1.4375 4.0625 1 2 C0.67 1.34 0.34 0.68 0 0 Z " fill="#D5CD16" transform="translate(140,137)"/>
<path d="M0 0 C0.33 0 0.66 0 1 0 C1.33 2.31 1.66 4.62 2 7 C1.01 7.495 1.01 7.495 0 8 C-0.79941308 10.52369457 -1.4936108 12.99718906 -2.125 15.5625 C-2.30675781 16.27341797 -2.48851562 16.98433594 -2.67578125 17.71679688 C-3.12444465 19.47602969 -3.56315957 21.23779417 -4 23 C-4.66 23 -5.32 23 -6 23 C-5.50387003 14.89654389 -2.679915 7.59474067 0 0 Z " fill="#C8C11C" transform="translate(8,68)"/>
<path d="M0 0 C1.7734375 1.546875 1.7734375 1.546875 3 3 C2.34 4.32 1.68 5.64 1 7 C0.75636719 6.03320312 0.75636719 6.03320312 0.5078125 5.046875 C-0.95214403 2.5663746 -0.95214403 2.5663746 -4.6953125 2.390625 C-6.17112237 2.32414708 -7.64796017 2.27806121 -9.125 2.25 C-9.87910156 2.22035156 -10.63320312 2.19070312 -11.41015625 2.16015625 C-13.27285953 2.08942068 -15.13643755 2.04245017 -17 2 C-11.72144604 -1.51903597 -6.07196921 -1.59190204 0 0 Z " fill="#DFD724" transform="translate(87,29)"/>
<path d="M0 0 C2.1875 -0.4375 2.1875 -0.4375 5 0 C7.1498429 2.05908436 8.82981229 4.25841737 10 7 C9.6328125 9.234375 9.6328125 9.234375 9 11 C7.68 10.34 6.36 9.68 5 9 C5 8.34 5 7.68 5 7 C4.34 7 3.68 7 3 7 C2.67 5.35 2.34 3.7 2 2 C1.34 2 0.68 2 0 2 C0 1.34 0 0.68 0 0 Z " fill="#FCF006" transform="translate(178,25)"/>
<path d="M0 0 C1 2 1 2 -0.109375 5.3359375 C-0.64815388 6.68555193 -1.19542148 8.03180066 -1.75 9.375 C-2.01554688 10.04789063 -2.28109375 10.72078125 -2.5546875 11.4140625 C-3.98927245 14.95177685 -5.37664543 18.18926296 -8 21 C-8.66 21 -9.32 21 -10 21 C-7.80144982 13.24041115 -4.22754377 6.84514622 0 0 Z " fill="#D5CF1E" transform="translate(147,41)"/>
<path d="M0 0 C-1.20381448 2.49361571 -2.45428722 4.68143083 -4 7 C-4.99 7 -5.98 7 -7 7 C-7 7.99 -7 8.98 -7 10 C-7.66 10 -8.32 10 -9 10 C-9 13.63 -9 17.26 -9 21 C-9.33 21 -9.66 21 -10 21 C-10.91545316 9.72636383 -10.91545316 9.72636383 -8.734375 5.61328125 C-3.88600629 0 -3.88600629 0 0 0 Z " fill="#D3CD1C" transform="translate(108,22)"/>
<path d="M0 0 C1.65 0 3.3 0 5 0 C5 0.66 5 1.32 5 2 C6.98 2 8.96 2 11 2 C10.67 3.32 10.34 4.64 10 6 C8.35 6 6.7 6 5 6 C5 5.34 5 4.68 5 4 C3.35 4 1.7 4 0 4 C0 2.68 0 1.36 0 0 Z " fill="#FCF104" transform="translate(65,209)"/>
<path d="M0 0 C0.33 0.66 0.66 1.32 1 2 C-0.65 2.66 -2.3 3.32 -4 4 C-4 4.66 -4 5.32 -4 6 C-3.34 6 -2.68 6 -2 6 C-1.34 7.98 -0.68 9.96 0 12 C-2.375 12.1875 -2.375 12.1875 -5 12 C-7 9 -7 9 -7 6.5625 C-5.59221815 2.955059 -3.2816019 1.88517556 0 0 Z " fill="#E1D91C" transform="translate(133,103)"/>
<path d="M0 0 C0 0.33 0 0.66 0 1 C-7.41834582 1.09377123 -14.66236293 1.17402193 -22 0 C-15.34429265 -3.92795844 -6.97873335 -2.48132741 0 0 Z " fill="#C7C11B" transform="translate(130,22)"/>
<path d="M0 0 C0.33 1.65 0.66 3.3 1 5 C1.66 5 2.32 5 3 5 C3 5.99 3 6.98 3 8 C-4.75 6.125 -4.75 6.125 -7 5 C-6.6875 3.0625 -6.6875 3.0625 -6 1 C-3 0 -3 0 0 0 Z " fill="#F2E80D" transform="translate(58,201)"/>
<path d="M0 0 C0.33 0.66 0.66 1.32 1 2 C0.34 2 -0.32 2 -1 2 C-1.268125 2.598125 -1.53625 3.19625 -1.8125 3.8125 C-3.0209891 6.03866413 -4.03530361 7.41312984 -6 9 C-7.32860925 9.35169068 -8.66158328 9.68770276 -10 10 C-10.33 10.66 -10.66 11.32 -11 12 C-12.32 11.67 -13.64 11.34 -15 11 C-13.44066679 9.72528295 -11.87738294 8.45539786 -10.3125 7.1875 C-9.44238281 6.47980469 -8.57226562 5.77210937 -7.67578125 5.04296875 C-5.20000368 3.15270354 -2.70203762 1.54332599 0 0 Z " fill="#D4CE1E" transform="translate(52,17)"/>
<path d="M0 0 C8.19670523 -0.89094622 14.67988673 3.04561236 21 8 C20.67 8.66 20.34 9.32 20 10 C19.01 9.67 18.02 9.34 17 9 C17 8.34 17 7.68 17 7 C16.01 7 15.02 7 14 7 C14 6.34 14 5.68 14 5 C13.01 5 12.02 5 11 5 C11 4.34 11 3.68 11 3 C9.6696875 3.061875 9.6696875 3.061875 8.3125 3.125 C5.02722987 3.00102754 2.94550705 2.38612096 0 1 C0 0.67 0 0.34 0 0 Z " fill="#D0CB24" transform="translate(155,36)"/>
<path d="M0 0 C0.33 0.99 0.66 1.98 1 3 C-2.88265516 5.77332512 -6.33397091 7.88421043 -11 9 C-12.32 8.67 -13.64 8.34 -15 8 C-10.05 5.36 -5.1 2.72 0 0 Z " fill="#CEC91A" transform="translate(171,199)"/>
<path d="M0 0 C0.33 -0.66 0.66 -1.32 1 -2 C3.31 -2 5.62 -2 8 -2 C6.03614374 0.82304338 4.68080001 1.07448 1.25 1.875 C-3.23103351 2.31480514 -6.0563697 1.05397412 -10 -1 C-10 -1.33 -10 -1.66 -10 -2 C-5.57867492 -3.38955931 -3.72488245 -2.66063032 0 0 Z " fill="#C8C21A" transform="translate(40,149)"/>
<path d="M0 0 C1.35439668 2.70879335 1.06501451 5.00933268 1 8 C-1.97 7.505 -1.97 7.505 -5 7 C-5 5.02 -5 3.04 -5 1 C-2 0 -2 0 0 0 Z " fill="#F2EA0C" transform="translate(206,48)"/>
<path d="M0 0 C0.66 0 1.32 0 2 0 C2.33 1.32 2.66 2.64 3 4 C1.71283353 5.00578589 0.42011342 6.00446798 -0.875 7 C-1.95394531 7.8353125 -1.95394531 7.8353125 -3.0546875 8.6875 C-5 10 -5 10 -7 10 C-6.75 7.625 -6.75 7.625 -6 5 C-4.0625 3.875 -4.0625 3.875 -2 3 C-1.34 2.01 -0.68 1.02 0 0 Z " fill="#CBC41B" transform="translate(180,197)"/>
<path d="M0 0 C0.82741699 0.01047363 1.65483398 0.02094727 2.50732422 0.03173828 C3.40322266 0.03818359 4.29912109 0.04462891 5.22216797 0.05126953 C6.62789062 0.07640625 6.62789062 0.07640625 8.06201172 0.10205078 C9.00689453 0.11107422 9.95177734 0.12009766 10.92529297 0.12939453 C13.26278464 0.15300556 15.59977295 0.18593562 17.93701172 0.22705078 C17.93701172 0.55705078 17.93701172 0.88705078 17.93701172 1.22705078 C8.53201172 1.72205078 8.53201172 1.72205078 -1.06298828 2.22705078 C-1.39298828 4.20705078 -1.72298828 6.18705078 -2.06298828 8.22705078 C-2.72298828 7.89705078 -3.38298828 7.56705078 -4.06298828 7.22705078 C-4.18798828 4.85205078 -4.18798828 4.85205078 -4.06298828 2.22705078 C-2.06298828 0.22705078 -2.06298828 0.22705078 0 0 Z " fill="#E0DB29" transform="translate(128.06298828125,116.77294921875)"/>
<path d="M0 0 C3.3956697 -0.08745946 6.79104773 -0.14054444 10.1875 -0.1875 C11.14720703 -0.21263672 12.10691406 -0.23777344 13.09570312 -0.26367188 C21.88777807 -0.35493909 21.88777807 -0.35493909 26 3 C25.67 4.65 25.34 6.3 25 8 C23 4.25 23 4.25 23 2 C11.615 1.505 11.615 1.505 0 1 C0 0.67 0 0.34 0 0 Z " fill="#F8F42D" transform="translate(73,109)"/>
<path d="M0 0 C0.66 0 1.32 0 2 0 C2.67364661 2.08108685 3.33866798 4.1649671 4 6.25 C4.37125 7.41015625 4.7425 8.5703125 5.125 9.765625 C6 13 6 13 6 17 C5.34 17 4.68 17 4 17 C1.57381975 11.45444514 0 6.0585719 0 0 Z " fill="#D1C91F" transform="translate(217,73)"/>
<path d="M0 0 C0.66 0.99 1.32 1.98 2 3 C-1.75 6 -1.75 6 -4 6 C-4 5.34 -4 4.68 -4 4 C-4.99 4 -5.98 4 -7 4 C-7.33 2.68 -7.66 1.36 -8 0 C-2.25 -1.125 -2.25 -1.125 0 0 Z " fill="#EFE70E" transform="translate(61,17)"/>
<path d="M0 0 C2.97 0.495 2.97 0.495 6 1 C2.2064129 4.21880117 -1.65829477 6.6163187 -6 9 C-5.67 7.35 -5.34 5.7 -5 4 C-4.01 4 -3.02 4 -2 4 C-1.34 2.68 -0.68 1.36 0 0 Z " fill="#D6CF1A" transform="translate(157,81)"/>
<path d="M0 0 C0.33 0.66 0.66 1.32 1 2 C0.34 2 -0.32 2 -1 2 C-1 2.99 -1 3.98 -1 5 C-1.99 5 -2.98 5 -4 5 C-4.2475 5.969375 -4.495 6.93875 -4.75 7.9375 C-5.1625 8.948125 -5.575 9.95875 -6 11 C-8.125 11.875 -8.125 11.875 -10 12 C-8.62968895 6.34746692 -4.32310587 3.4886459 0 0 Z " fill="#D3CE1C" transform="translate(63,34)"/>
<path d="M0 0 C1.9375 0.375 1.9375 0.375 4 1 C4.33 1.66 4.66 2.32 5 3 C4.01 3 3.02 3 2 3 C2 4.65 2 6.3 2 8 C0.35 7.67 -1.3 7.34 -3 7 C-3 5.68 -3 4.36 -3 3 C-2.34 3 -1.68 3 -1 3 C-0.67 2.01 -0.34 1.02 0 0 Z " fill="#F6ED05" transform="translate(42,26)"/>
<path d="M0 0 C0 2.62834278 -0.19789762 5.08186701 -0.5 7.6875 C-0.5928125 8.49574219 -0.685625 9.30398437 -0.78125 10.13671875 C-0.8534375 10.75160156 -0.925625 11.36648437 -1 12 C-3 10.8125 -3 10.8125 -5 9 C-5.5625 6.5625 -5.5625 6.5625 -5 4 C-2.5 1.6875 -2.5 1.6875 0 0 Z " fill="#FCF402" transform="translate(222,128)"/>
<path d="M0 0 C1.51171875 1.234375 1.51171875 1.234375 3 3 C3.14453125 5.015625 3.14453125 5.015625 2.8125 7.25 C2.63847656 8.43142578 2.63847656 8.43142578 2.4609375 9.63671875 C1.83610613 12.84030332 0.99231418 15.89074889 0 19 C-0.33 19 -0.66 19 -1 19 C-1.07911947 15.2022654 -1.00185626 11.57995617 -0.5 7.8125 C0.08668936 3.9798515 0.08668936 3.9798515 0 0 Z " fill="#BEBA20" transform="translate(139,28)"/>
<path d="M0 0 C0.33 0 0.66 0 1 0 C1.18451025 12.66970387 1.18451025 12.66970387 0 18 C-2.08876406 14.61476169 -2.12925805 12.34945379 -1.6875 8.4375 C-1.58824219 7.48746094 -1.48898438 6.53742188 -1.38671875 5.55859375 C-1 3 -1 3 0 0 Z " fill="#BBB71F" transform="translate(26,78)"/>
<path d="M0 0 C2.97 0 5.94 0 9 0 C9.33 0.99 9.66 1.98 10 3 C6.5980513 5.09350689 3.94727588 5.17942163 0 5 C0.99 4.01 1.98 3.02 3 2 C2.01 1.34 1.02 0.68 0 0 Z " fill="#FBF10C" transform="translate(134,4)"/>
<path d="M0 0 C3.94139078 1.66751148 6.7892812 4.22710649 10 7 C9.34 7.66 8.68 8.32 8 9 C5.04709864 7.62901008 2.39580248 6.22467373 0 4 C0 2.68 0 1.36 0 0 Z " fill="#DED818" transform="translate(146,143)"/>
<path d="M0 0 C2.4375 0.5625 2.4375 0.5625 4.25 2.5625 C4.641875 3.2225 5.03375 3.8825 5.4375 4.5625 C4.4475 5.0575 4.4475 5.0575 3.4375 5.5625 C3.4375 4.9025 3.4375 4.2425 3.4375 3.5625 C0.7975 3.8925 -1.8425 4.2225 -4.5625 4.5625 C-4.8925 5.8825 -5.2225 7.2025 -5.5625 8.5625 C-5.8925 7.5725 -6.2225 6.5825 -6.5625 5.5625 C-4.6803441 2.4497037 -3.62626641 0.7960097 0 0 Z " fill="#DBD31E" transform="translate(109.5625,125.4375)"/>
<path d="M0 0 C1.98 0 3.96 0 6 0 C6.33 0.66 6.66 1.32 7 2 C6.01 2.66 5.02 3.32 4 4 C4.66 4.66 5.32 5.32 6 6 C4.35 6.33 2.7 6.66 1 7 C0.01 5.68 -0.98 4.36 -2 3 C-1.34 2.34 -0.68 1.68 0 1 C0 0.67 0 0.34 0 0 Z " fill="#FAF00E" transform="translate(145,212)"/>
<path d="M0 0 C2.35171131 0.59861742 4.6859378 1.26924352 7 2 C7.33 2.66 7.66 3.32 8 4 C10.01669827 5.13350534 10.01669827 5.13350534 12 6 C9.46100862 6.9435441 8.39090725 7.16906025 5.859375 6.07421875 C5.16328125 5.61660156 4.4671875 5.15898437 3.75 4.6875 C3.04359375 4.23761719 2.3371875 3.78773438 1.609375 3.32421875 C1.07828125 2.88722656 0.5471875 2.45023438 0 2 C0 1.34 0 0.68 0 0 Z " fill="#D9D41F" transform="translate(89,196)"/>
<path d="M0 0 C0.99 0.495 0.99 0.495 2 1 C2.62669199 3.16467461 3.15427374 5.35864524 3.625 7.5625 C3.88539062 8.76003906 4.14578125 9.95757812 4.4140625 11.19140625 C4.60742188 12.11824219 4.80078125 13.04507813 5 14 C4.01 14.495 4.01 14.495 3 15 C2.67 12.69 2.34 10.38 2 8 C1.34 8 0.68 8 0 8 C0 5.36 0 2.72 0 0 Z " fill="#CFC91F" transform="translate(9,135)"/>
<path d="M0 0 C0.33 0 0.66 0 1 0 C1.34615998 5.65394631 0.43425238 9.03006806 -2 14 C-2.66 13.67 -3.32 13.34 -4 13 C-3.52511102 11.01980257 -3.04497141 9.04086365 -2.5625 7.0625 C-2.29566406 5.96035156 -2.02882813 4.85820312 -1.75390625 3.72265625 C-1 1 -1 1 0 0 Z " fill="#DDD51D" transform="translate(102,136)"/>
<path d="M0 0 C0.66 0 1.32 0 2 0 C1.36843005 5.05255964 -0.13459373 9.29593201 -2 14 C-2.66 13.34 -3.32 12.68 -4 12 C-4 11.01 -4 10.02 -4 9 C-3.34 9 -2.68 9 -2 9 C-1.7834375 7.329375 -1.7834375 7.329375 -1.5625 5.625 C-1 2 -1 2 0 0 Z " fill="#CDC51C" transform="translate(15,67)"/>
<path d="M0 0 C1.32 0 2.64 0 4 0 C4 0.66 4 1.32 4 2 C6.64 2.33 9.28 2.66 12 3 C11.34 4.65 10.68 6.3 10 8 C6.25718301 5.61820737 3.02272532 3.25524265 0 0 Z " fill="#D8D01C" transform="translate(36,195)"/>
<path d="M0 0 C-1.32 0.33 -2.64 0.66 -4 1 C-4 1.66 -4 2.32 -4 3 C-7.44450737 5.29633824 -9.93812283 5.54016485 -14 6 C-11.86197902 3.67490219 -9.81401863 2.17832764 -7 0.75 C-6.319375 0.39421875 -5.63875 0.0384375 -4.9375 -0.328125 C-3 -1 -3 -1 0 0 Z " fill="#C5C11F" transform="translate(183,76)"/>
<path d="M0 0 C0 0.66 0 1.32 0 2 C-1.65 2.33 -3.3 2.66 -5 3 C-5.33 4.98 -5.66 6.96 -6 9 C-7.32 8.01 -8.64 7.02 -10 6 C-7.55060729 1.22368421 -7.55060729 1.22368421 -5 0.1875 C-3 0 -3 0 0 0 Z " fill="#FCF008" transform="translate(199,180)"/>
<path d="M0 0 C1.98 0 3.96 0 6 0 C6 1.65 6 3.3 6 5 C2 5 2 5 0.25 3.5 C-0.1625 3.005 -0.575 2.51 -1 2 C-0.67 1.34 -0.34 0.68 0 0 Z " fill="#FAF20C" transform="translate(18,169)"/>
<path d="M0 0 C0.33 0 0.66 0 1 0 C1.33 1.98 1.66 3.96 2 6 C2.33 6 2.66 6 3 6 C3 7.98 3 9.96 3 12 C3.66 12 4.32 12 5 12 C4.67 13.32 4.34 14.64 4 16 C0.22695996 10.45834744 -0.54330269 6.65545792 0 0 Z " fill="#C9C521" transform="translate(42,160)"/>
<path d="M0 0 C2.64 0 5.28 0 8 0 C8.33 0.99 8.66 1.98 9 3 C5.30458414 3.95024979 2.69541586 3.95024979 -1 3 C-0.67 2.01 -0.34 1.02 0 0 Z " fill="#FCF105" transform="translate(151,10)"/>
<path d="M0 0 C0.66 0 1.32 0 2 0 C1.34580901 5.06998019 -0.8546409 9.41990777 -3 14 C-4.37095624 10.30962722 -3.60010967 8.29116165 -2.0625 4.75 C-1.68222656 3.85796875 -1.30195312 2.9659375 -0.91015625 2.046875 C-0.60980469 1.37140625 -0.30945313 0.6959375 0 0 Z " fill="#D0CA22" transform="translate(87,163)"/>
<path d="M0 0 C1.13508688 3.3515741 0.87309359 5.35675676 -0.25 8.6875 C-0.50265625 9.47511719 -0.7553125 10.26273438 -1.015625 11.07421875 C-2 13 -2 13 -5 14 C-3.45730076 9.27934033 -1.92205381 4.58335908 0 0 Z " fill="#D7CE23" transform="translate(131,74)"/>
<path d="M0 0 C1.32 0.33 2.64 0.66 4 1 C2.56705502 1.84114171 1.12845595 2.67265687 -0.3125 3.5 C-1.51326172 4.19609375 -1.51326172 4.19609375 -2.73828125 4.90625 C-5 6 -5 6 -8 6 C-8 5.34 -8 4.68 -8 4 C-7.01 4 -6.02 4 -5 4 C-5 3.34 -5 2.68 -5 2 C-3.35 2 -1.7 2 0 2 C0 1.34 0 0.68 0 0 Z " fill="#CFC920" transform="translate(161,211)"/>
<path d="M0 0 C1.32 0 2.64 0 4 0 C4 0.66 4 1.32 4 2 C4.99 2.33 5.98 2.66 7 3 C6.34 3 5.68 3 5 3 C5 3.66 5 4.32 5 5 C3.35 5 1.7 5 0 5 C0 3.33333333 0 1.66666667 0 0 Z " fill="#FBF107" transform="translate(156,208)"/>
<path d="M0 0 C4.47238653 1.41807378 8.71146306 3.11304374 13 5 C13 5.33 13 5.66 13 6 C11.02 6 9.04 6 7 6 C7 5.34 7 4.68 7 4 C4.03 3.505 4.03 3.505 1 3 C0.67 2.01 0.34 1.02 0 0 Z " fill="#C8C11E" transform="translate(63,205)"/>
<path d="M0 0 C2.97 0 5.94 0 9 0 C8.67 1.32 8.34 2.64 8 4 C7.01 4.495 7.01 4.495 6 5 C3.98079663 3.69593116 1.98075027 2.36176581 0 1 C0 0.67 0 0.34 0 0 Z " fill="#DDD511" transform="translate(165,155)"/>
<path d="M0 0 C0.99 0 1.98 0 3 0 C2.6875 1.9375 2.6875 1.9375 2 4 C1.01 4.33 0.02 4.66 -1 5 C-1 5.66 -1 6.32 -1 7 C-2.98 7.99 -2.98 7.99 -5 9 C-3.49901406 5.88256767 -1.97568178 2.84498177 0 0 Z " fill="#D0CC1F" transform="translate(22,44)"/>
<path d="M0 0 C0.66 0.33 1.32 0.66 2 1 C1.54965877 2.62723299 1.08944646 4.25173664 0.625 5.875 C0.36976563 6.77992188 0.11453125 7.68484375 -0.1484375 8.6171875 C-1 11 -1 11 -3 13 C-3 11.02 -3 9.04 -3 7 C-2.34 7 -1.68 7 -1 7 C-0.67 4.69 -0.34 2.38 0 0 Z " fill="#B8B51E" transform="translate(218,146)"/>
<path d="M0 0 C0.66 0.99 1.32 1.98 2 3 C-1.75 8.875 -1.75 8.875 -4 10 C-4 8.35 -4 6.7 -4 5 C-3.01 5 -2.02 5 -1 5 C-0.67 3.35 -0.34 1.7 0 0 Z " fill="#DAD320" transform="translate(195,148)"/>
<path d="M0 0 C0.33 0.66 0.66 1.32 1 2 C-0.28965176 3.37562854 -1.62689293 4.70766393 -3 6 C-3.66 6 -4.32 6 -5 6 C-5 6.66 -5 7.32 -5 8 C-6.65 8 -8.3 8 -10 8 C-6.97727468 4.74475735 -3.74281699 2.38179263 0 0 Z " fill="#CDC620" transform="translate(80,131)"/>
<path d="M0 0 C0.66 0 1.32 0 2 0 C1.52651586 4.1666604 0.95303159 6.92884715 -2 10 C-2.66 10 -3.32 10 -4 10 C-4 9.01 -4 8.02 -4 7 C-3.01 7 -2.02 7 -1 7 C-0.67 4.69 -0.34 2.38 0 0 Z " fill="#C8C122" transform="translate(201,106)"/>
<path d="M0 0 C1.46534385 3.80989402 0.55203911 6.3241179 -1 10 C-1.99 10.495 -1.99 10.495 -3 11 C-3 8.03 -3 5.06 -3 2 C-2.01 2.495 -2.01 2.495 -1 3 C-0.67 2.01 -0.34 1.02 0 0 Z " fill="#D1C920" transform="translate(125,88)"/>
<path d="M0 0 C1.65 0 3.3 0 5 0 C4.34 2.64 3.68 5.28 3 8 C0.37613513 4.93882432 0 4.26826873 0 0 Z " fill="#E0D818" transform="translate(7,82)"/>
<path d="M0 0 C2.31 0.66 4.62 1.32 7 2 C7 3.65 7 5.3 7 7 C5.83040013 6.02433888 4.66438823 5.044375 3.5 4.0625 C2.8503125 3.51722656 2.200625 2.97195312 1.53125 2.41015625 C1.0259375 1.94480469 0.520625 1.47945312 0 1 C0 0.67 0 0.34 0 0 Z " fill="#BBB215" transform="translate(29,188)"/>
<path d="M0 0 C3.96 0.33 7.92 0.66 12 1 C8.64672361 3.23551759 8.09256343 3.17283528 4.3125 2.625 C3.50425781 2.51414063 2.69601563 2.40328125 1.86328125 2.2890625 C1.24839844 2.19367188 0.63351563 2.09828125 0 2 C0 1.34 0 0.68 0 0 Z " fill="#B5B123" transform="translate(62,187)"/>
<path d="M0 0 C0.99 0 1.98 0 3 0 C3 1.32 3 2.64 3 4 C3.66 4 4.32 4 5 4 C5 5.32 5 6.64 5 8 C5.66 8.33 6.32 8.66 7 9 C6.01 9 5.02 9 4 9 C0 2.25 0 2.25 0 0 Z " fill="#BAB71B" transform="translate(12,163)"/>
<path d="M0 0 C0 0.66 0 1.32 0 2 C-6.75 6 -6.75 6 -9 6 C-8.875 4.125 -8.875 4.125 -8 2 C-5.25822503 0.83328724 -2.99432393 0 0 0 Z " fill="#CECA1F" transform="translate(62,139)"/>
<path d="M0 0 C0.33 0.66 0.66 1.32 1 2 C0.22265625 4.1640625 0.22265625 4.1640625 -0.9375 6.625 C-1.31777344 7.44226562 -1.69804687 8.25953125 -2.08984375 9.1015625 C-2.39019531 9.72804688 -2.69054687 10.35453125 -3 11 C-3.99 11 -4.98 11 -6 11 C-4.02 7.37 -2.04 3.74 0 0 Z " fill="#C5C121" transform="translate(147,41)"/>
<path d="M0 0 C1.43861294 0.08746284 2.87597508 0.19565348 4.3125 0.3125 C5.11300781 0.37050781 5.91351563 0.42851562 6.73828125 0.48828125 C9.36272334 1.08206694 10.30820672 1.95780294 12 4 C11.34 5.32 10.68 6.64 10 8 C9.34 6.02 8.68 4.04 8 2 C5.36 1.67 2.72 1.34 0 1 C0 0.67 0 0.34 0 0 Z " fill="#B2AD1E" transform="translate(78,28)"/>
<path d="M0 0 C4.455 0.99 4.455 0.99 9 2 C8.67 2.99 8.34 3.98 8 5 C2.25 3.125 2.25 3.125 0 2 C0 1.34 0 0.68 0 0 Z " fill="#D0CC1D" transform="translate(61,211)"/>
<path d="M0 0 C1.89213369 2.38573379 3.02391783 4.07175348 4 7 C1.69 6.34 -0.62 5.68 -3 5 C-2.01 3.35 -1.02 1.7 0 0 Z " fill="#FBF104" transform="translate(57,202)"/>
<path d="M0 0 C0.99 0.33 1.98 0.66 3 1 C2.67 1.99 2.34 2.98 2 4 C3.98 4.66 5.96 5.32 8 6 C6.02 6.99 6.02 6.99 4 8 C0 3.375 0 3.375 0 0 Z " fill="#CDC81F" transform="translate(135,187)"/>
<path d="M0 0 C0.99 0 1.98 0 3 0 C1.60667426 3.36720387 0.0210714 4.9859524 -3 7 C-3.99 6.34 -4.98 5.68 -6 5 C-5.34 4.67 -4.68 4.34 -4 4 C-3.34 4.33 -2.68 4.66 -2 5 C-1.67 4.01 -1.34 3.02 -1 2 C-0.67 1.34 -0.34 0.68 0 0 Z " fill="#DEDA1C" transform="translate(78,181)"/>
<path d="M0 0 C1.32 0.66 2.64 1.32 4 2 C3.67 3.32 3.34 4.64 3 6 C2.01 6 1.02 6 0 6 C-0.38218767 4.34385343 -0.71395102 2.67542976 -1 1 C-0.67 0.67 -0.34 0.34 0 0 Z " fill="#FDF104" transform="translate(15,160)"/>
<path d="M0 0 C3.76547669 3.76547669 3.91348469 5.90173585 5 11 C4.01 11.495 4.01 11.495 3 12 C2.01 8.04 1.02 4.08 0 0 Z " fill="#B9B21F" transform="translate(2,136)"/>
<path d="M0 0 C0 0.99 0 1.98 0 3 C-0.33 2.34 -0.66 1.68 -1 1 C-2.65 1.33 -4.3 1.66 -6 2 C-6.66 1.01 -7.32 0.02 -8 -1 C-4.37673261 -2.2077558 -3.35853631 -1.54311128 0 0 Z " fill="#D7D311" transform="translate(196,124)"/>
<path d="M0 0 C3.36591866 1.44253657 5.51047079 3.33264727 8 6 C6.02 6 4.04 6 2 6 C1.34 4.02 0.68 2.04 0 0 Z " fill="#DCD718" transform="translate(80,85)"/>
<path d="M0 0 C0.33 0.66 0.66 1.32 1 2 C4.465 1.505 4.465 1.505 8 1 C5.7448078 3.2551922 3.9952413 3.97723468 1 5 C0.01 5 -0.98 5 -2 5 C-2 4.34 -2 3.68 -2 3 C-1.34 3 -0.68 3 0 3 C0 2.01 0 1.02 0 0 Z " fill="#BEB71B" transform="translate(70,12)"/>
<path d="M0 0 C1.32 0.66 2.64 1.32 4 2 C3.67 3.32 3.34 4.64 3 6 C1.68 5.34 0.36 4.68 -1 4 C-0.67 2.68 -0.34 1.36 0 0 Z " fill="#FBF204" transform="translate(26,177)"/>
<path d="M0 0 C0.99 0 1.98 0 3 0 C1.515 5.445 1.515 5.445 0 11 C-0.33 11 -0.66 11 -1 11 C-0.67 7.37 -0.34 3.74 0 0 Z " fill="#C1BB1E" transform="translate(129,66)"/>
<path d="M0 0 C2.45823172 3.68734758 3.01242616 6.69699971 4 11 C3.01 11 2.02 11 1 11 C0.67 7.37 0.34 3.74 0 0 Z " fill="#D0C81F" transform="translate(98,57)"/>
<path d="M0 0 C1.32 0 2.64 0 4 0 C4.144375 0.78375 4.28875 1.5675 4.4375 2.375 C4.87798925 4.96421018 4.87798925 4.96421018 6 7 C5.34 7.66 4.68 8.32 4 9 C0 2.25 0 2.25 0 0 Z " fill="#C5C01A" transform="translate(201,55)"/>
<path d="M0 0 C4.54805635 -0.17835515 7.8794254 0.00214565 12 2 C12 2.33 12 2.66 12 3 C7.45194365 3.17835515 4.1205746 2.99785435 0 1 C0 0.67 0 0.34 0 0 Z " fill="#BAB418" transform="translate(155,36)"/>
<path d="M0 0 C0.66 0.99 1.32 1.98 2 3 C0.35 4.32 -1.3 5.64 -3 7 C-3.66 6.34 -4.32 5.68 -5 5 C-3.35 3.35 -1.7 1.7 0 0 Z " fill="#D9D418" transform="translate(36,29)"/>
<path d="M0 0 C2.475 0.99 2.475 0.99 5 2 C4.67 3.65 4.34 5.3 4 7 C2 5.75 2 5.75 0 4 C0 2.68 0 1.36 0 0 Z " fill="#E5DF17" transform="translate(58,202)"/>
<path d="M0 0 C0.33 0 0.66 0 1 0 C1.4726477 8.19256018 1.4726477 8.19256018 -0.5 11.5625 C-0.995 12.036875 -1.49 12.51125 -2 13 C-2 11.02 -2 9.04 -2 7 C-1.34 7 -0.68 7 0 7 C0 4.69 0 2.38 0 0 Z " fill="#B7B119" transform="translate(173,169)"/>
<path d="M0 0 C2.56616632 3.84924948 2.55097676 6.4349304 3 11 C2.67 10.34 2.34 9.68 2 9 C1.34 9 0.68 9 0 9 C0 6.03 0 3.06 0 0 Z " fill="#C3BE1C" transform="translate(125,167)"/>
<path d="M0 0 C0 0.99 0 1.98 0 3 C-0.639375 3.28875 -1.27875 3.5775 -1.9375 3.875 C-4.15206079 4.82823451 -4.15206079 4.82823451 -5 7 C-6.32 6.67 -7.64 6.34 -9 6 C-6.03 4.02 -3.06 2.04 0 0 Z " fill="#BFB724" transform="translate(69,139)"/>
<path d="M0 0 C0.66 0.33 1.32 0.66 2 1 C1.67 1.99 1.34 2.98 1 4 C-0.32 4 -1.64 4 -3 4 C-3 4.66 -3 5.32 -3 6 C-4.32 5.67 -5.64 5.34 -7 5 C-4.69 3.35 -2.38 1.7 0 0 Z " fill="#CEC91C" transform="translate(88,125)"/>
<path d="M0 0 C4 0 4 0 5.75 1.375 C7 3 7 3 7 5 C4.0625 4.1875 4.0625 4.1875 1 3 C0.67 2.01 0.34 1.02 0 0 Z " fill="#E9E413" transform="translate(26,96)"/>
<path d="M0 0 C0.66 0 1.32 0 2 0 C2.33 1.32 2.66 2.64 3 4 C1.02 4.99 1.02 4.99 -1 6 C-1.33 5.01 -1.66 4.02 -2 3 C-1.34 2.01 -0.68 1.02 0 0 Z " fill="#DDD810" transform="translate(180,197)"/>
<path d="M0 0 C1.125 3.75 1.125 3.75 0 6 C0.66 6.33 1.32 6.66 2 7 C0.35 7.33 -1.3 7.66 -3 8 C-1.125 2.25 -1.125 2.25 0 0 Z " fill="#D9D21A" transform="translate(207,157)"/>
<path d="M0 0 C2.875 0.625 2.875 0.625 6 2 C7.375 5.125 7.375 5.125 8 8 C6.85073734 7.04578192 5.70569459 6.08647955 4.5625 5.125 C3.92441406 4.59132813 3.28632812 4.05765625 2.62890625 3.5078125 C1 2 1 2 0 0 Z " fill="#B4A915" transform="translate(91,91)"/>
<path d="M0 0 C0.66 0 1.32 0 2 0 C1.40072174 3.35595828 0.15377564 5.37801226 -2 8 C-2.33 6.02 -2.66 4.04 -3 2 C-2.01 2 -1.02 2 0 2 C0 1.34 0 0.68 0 0 Z " fill="#D7D31D" transform="translate(21,56)"/>
<path d="M0 0 C3.36720387 1.39332574 4.9859524 2.9789286 7 6 C4 6 4 6 1.8125 4.125 C0 2 0 2 0 0 Z " fill="#C7C11B" transform="translate(183,25)"/>
<path d="M0 0 C-0.33 1.32 -0.66 2.64 -1 4 C-2.65 4.33 -4.3 4.66 -6 5 C-6.33 4.34 -6.66 3.68 -7 3 C-2.25 0 -2.25 0 0 0 Z " fill="#D3CC1E" transform="translate(60,13)"/>
<path d="M0 0 C0.99 0 1.98 0 3 0 C2.67 1.65 2.34 3.3 2 5 C0.68 4.67 -0.64 4.34 -2 4 C-1.34 2.68 -0.68 1.36 0 0 Z " fill="#FCF003" transform="translate(161,13)"/>
<path d="M0 0 C0.99 0.33 1.98 0.66 3 1 C3 1.66 3 2.32 3 3 C0.64561267 4.42944945 -0.48032433 5.08661261 -3.25 4.625 C-3.8275 4.41875 -4.405 4.2125 -5 4 C-5 3.67 -5 3.34 -5 3 C-3.35 3 -1.7 3 0 3 C0 2.01 0 1.02 0 0 Z " fill="#DAD524" transform="translate(122,198)"/>
<path d="M0 0 C2.97 0.495 2.97 0.495 6 1 C3.31158141 3.25245881 1.35358125 4.88213958 -2 6 C-2 5.34 -2 4.68 -2 4 C-1.34 4 -0.68 4 0 4 C0 2.68 0 1.36 0 0 Z " fill="#D5C81D" transform="translate(84,122)"/>
<path d="M0 0 C2.4375 0.6875 2.4375 0.6875 5 2 C5.8125 4.625 5.8125 4.625 6 7 C5.01 7.495 5.01 7.495 4 8 C3.67 6.02 3.34 4.04 3 2 C2.01 2 1.02 2 0 2 C0 1.34 0 0.68 0 0 Z " fill="#D2CA23" transform="translate(93,109)"/>
<path d="M0 0 C3.465 1.98 3.465 1.98 7 4 C7 4.99 7 5.98 7 7 C4.5 5.625 4.5 5.625 2 4 C2 3.34 2 2.68 2 2 C1.34 2 0.68 2 0 2 C0 1.34 0 0.68 0 0 Z " fill="#D1C91E" transform="translate(72,79)"/>
<path d="M0 0 C1.25541557 3.76624671 0.37061958 5.37188934 -1 9 C-1.99 9 -2.98 9 -4 9 C-2.80100302 5.9168649 -1.52299523 2.93720508 0 0 Z " fill="#C9C421" transform="translate(16,53)"/>
<path d="M0 0 C1.32 0 2.64 0 4 0 C4.33 1.32 4.66 2.64 5 4 C3.35 3.67 1.7 3.34 0 3 C0 2.01 0 1.02 0 0 Z " fill="#FBF202" transform="translate(195,42)"/>
<path d="M0 0 C-2 2 -2 2 -5.625 2.125 C-6.73875 2.08375 -7.8525 2.0425 -9 2 C-5.945634 -1.054366 -3.9532319 -1.22686507 0 0 Z " fill="#CEC823" transform="translate(91,3)"/>
</svg>
